# Blender 4.1.1
# www.blender.org
mtllib player.mtl
o Cube.001
v 0.826653 -0.432656 1.000000
v 0.826653 0.432656 1.000000
v -0.826653 -0.432656 1.000000
v -0.826653 0.432656 1.000000
v 0.826653 -0.432656 -1.000000
v 0.826653 0.432656 -1.000000
v -0.826653 -0.432656 -1.000000
v -0.826653 0.432656 -1.000000
v -0.826653 -0.432656 0.000000
v -0.826653 0.432656 0.000000
v 0.826653 -0.432656 -0.000000
v 0.826653 0.432656 -0.000000
v -0.826653 0.432656 -0.500000
v 0.826653 -0.432656 -0.500000
v -0.826653 -0.432656 -0.500000
v 0.826653 0.432656 -0.500000
v 0.000000 -0.432656 1.000000
v 0.000000 0.432656 1.000000
v -0.000000 -0.432656 -1.000000
v -0.000000 0.432656 -1.000000
v -0.826653 -0.216328 1.000000
v 0.000000 -0.432656 -0.000000
v -0.000000 0.432656 -0.500000
v 0.000000 -0.432656 -0.500000
v -0.413326 0.432656 1.000000
v -0.413326 -0.432656 -1.000000
v -0.413326 -0.432656 1.000000
v -0.413326 0.432656 -1.000000
v -0.413326 0.432656 0.000000
v -0.413326 -0.432656 0.000000
v -0.413326 0.432656 -0.500000
v -0.413326 -0.432656 -0.500000
v 0.413326 -0.432656 1.000000
v 0.413326 0.432656 -1.000000
v 0.413326 0.432656 -0.000000
v 0.413326 -0.432656 -0.000000
v 0.413326 0.432656 -0.500000
v 0.413326 -0.432656 -0.500000
v 0.413326 0.432656 1.000000
v 0.413326 -0.432656 -1.000000
v -0.826653 -0.432656 0.500000
v 0.826653 0.432656 0.500000
v -0.826653 0.432656 0.500000
v 0.826653 -0.432656 0.500000
v 0.000000 -0.432656 0.500000
v -0.000000 0.432656 0.500000
v -0.413326 0.432656 0.500000
v -0.413326 -0.432656 0.500000
v 0.413326 -0.432656 0.500000
v 0.413326 0.432656 0.500000
v 0.826653 0.000000 1.000000
v -0.826653 -0.000000 1.000000
v -0.826653 -0.000000 -1.000000
v 0.826653 0.000000 -1.000000
v 0.826653 0.000000 -0.000000
v -0.826653 -0.000000 0.000000
v 0.826653 0.000000 -0.500000
v -0.826653 -0.000000 -0.500000
v 0.067444 -0.063660 -1.783436
v 0.000000 0.000000 1.000000
v -0.345882 -0.063660 -1.783436
v -0.413326 -0.000000 1.000000
v 0.413326 0.000000 1.000000
v 0.413326 0.000000 -1.000000
v -0.826653 -0.000000 0.500000
v 0.826653 0.000000 0.500000
v -0.252943 0.878408 0.000000
v -0.000000 0.878408 0.000000
v -0.252943 0.878408 -0.381585
v -0.000000 0.878408 -0.381585
v -0.000000 0.878408 0.381585
v -0.252943 0.878408 0.381585
v 0.252943 0.878408 -0.000000
v 0.252943 0.878408 -0.381585
v 0.252943 0.878408 0.381585
v -0.826653 -0.216328 -1.000000
v 0.826653 -0.216328 -1.000000
v 0.826653 -0.216328 -0.000000
v -0.826653 -0.216328 0.000000
v 0.826653 -0.216328 -0.500000
v -0.826653 -0.216328 -0.500000
v -0.000000 -0.216328 -1.000000
v 0.000000 -0.216328 1.000000
v -0.413326 -0.216328 -1.000000
v -0.413326 -0.216328 1.000000
v 0.413326 -0.216328 1.000000
v 0.413326 -0.216328 -1.000000
v -0.826653 -0.216328 0.500000
v 0.826653 -0.216328 0.500000
v 0.826653 -0.216328 1.000000
v 0.826653 0.216328 1.000000
v -0.826653 0.216328 1.000000
v -0.826653 0.216328 -1.000000
v 0.826653 0.216328 -1.000000
v 0.826653 0.216328 -0.000000
v -0.826653 0.216328 0.000000
v 0.826653 0.216328 -0.500000
v -0.826653 0.216328 -0.500000
v 0.067444 0.152668 -1.783436
v 0.000000 0.216328 1.000000
v -0.345882 0.152668 -1.783436
v -0.413326 0.216328 1.000000
v 0.413326 0.216328 1.000000
v 0.413326 0.216328 -1.000000
v -0.826653 0.216328 0.500000
v 0.826653 0.216328 0.500000
v -0.826653 0.216328 1.000000
v -0.826653 -0.000000 1.000000
v -0.826653 0.216328 -1.000000
v -0.826653 -0.000000 -1.000000
v 0.826653 0.216328 -1.000000
v 0.826653 0.000000 -1.000000
v 0.826653 0.216328 -0.000000
v 0.826653 0.000000 -0.000000
v -0.826653 0.216328 0.000000
v -0.826653 -0.000000 0.000000
v 0.826653 0.216328 -0.500000
v 0.826653 0.000000 -0.500000
v -0.826653 0.216328 -0.500000
v -0.826653 -0.000000 -0.500000
v -0.826653 0.216328 0.500000
v -0.826653 -0.000000 0.500000
v 0.826653 0.216328 0.500000
v 0.826653 0.000000 0.500000
v 0.826653 0.000000 1.000000
v 0.826653 0.216328 1.000000
v -1.837118 0.216328 1.000000
v -1.837118 -0.000000 1.000000
v -1.837118 0.216328 -1.000000
v -1.837118 -0.000000 -1.000000
v -1.837118 0.216328 0.000000
v -1.837118 -0.000000 0.000000
v -1.837118 0.216328 -0.500000
v -1.837118 -0.000000 -0.500000
v -1.837118 0.216328 0.500000
v -1.837118 -0.000000 0.500000
v 2.924191 0.216327 -0.948574
v 2.924191 -0.000001 -0.948574
v 1.935123 0.216328 -0.000000
v 1.935123 0.000000 -0.000000
v 2.924191 0.216327 -0.586488
v 2.924191 -0.000001 -0.586488
v 1.935123 0.216328 0.500000
v 1.935123 0.000000 0.500000
v 1.935123 0.000000 1.000000
v 1.935123 0.216328 1.000000
v 1.380888 0.216328 0.500000
v 1.380888 0.216328 1.000000
v 1.380888 0.000000 1.000000
v 1.875422 0.000000 -0.543244
v 1.380888 0.000000 -0.000000
v 1.875422 0.216328 -0.543244
v 1.875422 0.216328 -0.974287
v 1.380888 0.216328 -0.000000
v 1.380888 0.000000 0.500000
v 1.875422 0.000000 -0.974287
v 1.103770 0.216328 0.500000
v 1.103770 0.216328 1.000000
v 1.103770 0.000000 -0.000000
v 1.351037 0.216328 -0.987144
v 1.103770 0.216328 -0.000000
v 1.103770 0.000000 1.000000
v 1.351037 0.000000 -0.521622
v 1.351037 0.216328 -0.521622
v 1.103770 0.000000 0.500000
v 1.351037 0.000000 -0.987144
v 1.103770 -0.337181 0.500000
v 1.380888 -0.337181 0.500000
v 1.380888 -0.337181 -0.000000
v 1.103770 -0.337181 -0.000000
v -0.826653 -0.432656 1.000000
v -0.826653 0.432656 1.000000
v 0.826653 -0.432656 1.000000
v 0.826653 0.432656 1.000000
v -0.826653 -0.432656 -1.000000
v -0.826653 0.432656 -1.000000
v 0.826653 -0.432656 -1.000000
v 0.826653 0.432656 -1.000000
v 0.826653 -0.432656 -0.000000
v 0.826653 0.432656 -0.000000
v -0.826653 -0.432656 0.000000
v -0.826653 0.432656 0.000000
v 0.826653 0.432656 -0.500000
v -0.826653 -0.432656 -0.500000
v 0.826653 -0.432656 -0.500000
v -0.826653 0.432656 -0.500000
v 0.826653 -0.216328 1.000000
v 0.413326 0.432656 1.000000
v 0.413326 -0.432656 -1.000000
v 0.413326 -0.432656 1.000000
v 0.413326 0.432656 -1.000000
v 0.413326 0.432656 -0.000000
v 0.413326 -0.432656 -0.000000
v 0.413326 0.432656 -0.500000
v 0.413326 -0.432656 -0.500000
v -0.413326 -0.432656 1.000000
v -0.413326 0.432656 -1.000000
v -0.413326 0.432656 0.000000
v -0.413326 -0.432656 0.000000
v -0.413326 0.432656 -0.500000
v -0.413326 -0.432656 -0.500000
v -0.413326 0.432656 1.000000
v -0.413326 -0.432656 -1.000000
v 0.826653 -0.432656 0.500000
v -0.826653 0.432656 0.500000
v 0.826653 0.432656 0.500000
v -0.826653 -0.432656 0.500000
v 0.413326 0.432656 0.500000
v 0.413326 -0.432656 0.500000
v -0.413326 -0.432656 0.500000
v -0.413326 0.432656 0.500000
v -0.826653 -0.000000 1.000000
v 0.826653 0.000000 1.000000
v 0.826653 0.000000 -1.000000
v -0.826653 -0.000000 -1.000000
v -0.826653 -0.000000 0.000000
v 0.826653 0.000000 -0.000000
v -0.826653 -0.000000 -0.500000
v 0.826653 0.000000 -0.500000
v -0.067444 -0.063660 -1.783436
v 0.345882 -0.063660 -1.783436
v 0.413326 0.000000 1.000000
v -0.413326 -0.000000 1.000000
v -0.413326 -0.000000 -1.000000
v 0.826653 0.000000 0.500000
v -0.826653 -0.000000 0.500000
v 0.252943 0.878408 -0.000000
v 0.252943 0.878408 -0.381585
v 0.252943 0.878408 0.381585
v -0.252943 0.878408 0.000000
v -0.252943 0.878408 -0.381585
v -0.252943 0.878408 0.381585
v 0.826653 -0.216328 -1.000000
v -0.826653 -0.216328 -1.000000
v -0.826653 -0.216328 0.000000
v 0.826653 -0.216328 -0.000000
v -0.826653 -0.216328 -0.500000
v 0.826653 -0.216328 -0.500000
v 0.413326 -0.216328 -1.000000
v 0.413326 -0.216328 1.000000
v -0.413326 -0.216328 1.000000
v -0.413326 -0.216328 -1.000000
v 0.826653 -0.216328 0.500000
v -0.826653 -0.216328 0.500000
v -0.826653 -0.216328 1.000000
v -0.826653 0.216328 1.000000
v 0.826653 0.216328 1.000000
v 0.826653 0.216328 -1.000000
v -0.826653 0.216328 -1.000000
v -0.826653 0.216328 0.000000
v 0.826653 0.216328 -0.000000
v -0.826653 0.216328 -0.500000
v 0.826653 0.216328 -0.500000
v -0.067444 0.152668 -1.783436
v 0.345882 0.152668 -1.783436
v 0.413326 0.216328 1.000000
v -0.413326 0.216328 1.000000
v -0.413326 0.216328 -1.000000
v 0.826653 0.216328 0.500000
v -0.826653 0.216328 0.500000
v 0.826653 0.216328 1.000000
v 0.826653 0.000000 1.000000
v 0.826653 0.216328 -1.000000
v 0.826653 0.000000 -1.000000
v -0.826653 0.216328 -1.000000
v -0.826653 -0.000000 -1.000000
v -0.826653 0.216328 0.000000
v -0.826653 -0.000000 0.000000
v 0.826653 0.216328 -0.000000
v 0.826653 0.000000 -0.000000
v -0.826653 0.216328 -0.500000
v -0.826653 -0.000000 -0.500000
v 0.826653 0.216328 -0.500000
v 0.826653 0.000000 -0.500000
v 0.826653 0.216328 0.500000
v 0.826653 0.000000 0.500000
v -0.826653 0.216328 0.500000
v -0.826653 -0.000000 0.500000
v -0.826653 -0.000000 1.000000
v -0.826653 0.216328 1.000000
v 1.837118 0.216328 1.000000
v 1.837118 0.000000 1.000000
v 1.837118 0.216328 -1.000000
v 1.837118 0.000000 -1.000000
v 1.837118 0.216328 -0.000000
v 1.837118 0.000000 -0.000000
v 1.837118 0.216328 -0.500000
v 1.837118 0.000000 -0.500000
v 1.837118 0.216328 0.500000
v 1.837118 0.000000 0.500000
v -2.924191 0.216327 -0.948574
v -2.924191 -0.000001 -0.948574
v -1.935123 0.216328 0.000000
v -1.935123 -0.000000 0.000000
v -2.924191 0.216327 -0.586488
v -2.924191 -0.000001 -0.586488
v -1.935123 0.216328 0.500000
v -1.935123 -0.000000 0.500000
v -1.935123 -0.000000 1.000000
v -1.935123 0.216328 1.000000
v -1.380888 0.216328 0.500000
v -1.380888 0.216328 1.000000
v -1.380888 -0.000000 1.000000
v -1.875422 -0.000000 -0.543244
v -1.380888 -0.000000 0.000000
v -1.875422 0.216328 -0.543244
v -1.875422 0.216328 -0.974287
v -1.380888 0.216328 0.000000
v -1.380888 -0.000000 0.500000
v -1.875422 -0.000000 -0.974287
v -1.103770 0.216328 0.500000
v -1.103770 0.216328 1.000000
v -1.103770 -0.000000 0.000000
v -1.351037 0.216328 -0.987144
v -1.103770 0.216328 0.000000
v -1.103770 -0.000000 1.000000
v -1.351037 -0.000000 -0.521622
v -1.351037 0.216328 -0.521622
v -1.103770 -0.000000 0.500000
v -1.351037 -0.000000 -0.987144
v -1.103770 -0.337181 0.500000
v -1.380888 -0.337181 0.500000
v -1.380888 -0.337181 0.000000
v -1.103770 -0.337181 0.000000
vn -0.0000 -0.0000 1.0000
vn -1.0000 -0.0000 -0.0000
vn -0.0000 -0.0000 -1.0000
vn 1.0000 -0.0000 -0.0000
vn -0.0000 -1.0000 -0.0000
vn -0.0000 1.0000 -0.0000
vn -0.0000 0.2567 0.9665
vn -0.0000 0.9417 -0.3365
vn -0.4368 0.8345 -0.3358
vn 0.9409 0.3386 -0.0000
vn 0.4469 0.8539 -0.2667
vn -0.9409 0.3386 -0.0000
vn -0.0000 0.2567 -0.9665
vn -0.0000 -0.9815 -0.1913
vn 0.9148 -0.0000 -0.4039
vn -0.8523 -0.0000 -0.5230
vn -0.0000 1.0000 0.0001
vn 0.5100 -0.0000 0.8601
vn 0.0245 -0.0000 -0.9997
vn -0.4469 0.8539 -0.2667
vn -0.4597 -0.8783 -0.1316
vn -0.9148 -0.0000 -0.4039
vn 0.8523 -0.0000 -0.5230
vn -0.5100 -0.0000 0.8601
vn -0.0245 -0.0000 -0.9997
vn 0.4597 -0.8783 -0.1316
vn -0.4536 -0.8666 -0.2079
vn 0.4368 0.8345 -0.3358
vn 0.4536 -0.8666 -0.2079
vt 0.766826 0.771784
vt 0.787858 0.711066
vt 0.802253 0.765835
vt 0.691629 0.575792
vt 0.742097 0.520631
vt 0.715251 0.580602
vt 0.683190 0.339387
vt 0.724829 0.287291
vt 0.721886 0.349920
vt 0.684183 0.147234
vt 0.739028 0.121144
vt 0.701385 0.158886
vt 0.822310 0.317960
vt 0.818836 0.250365
vt 0.862391 0.268579
vt 0.708549 0.071900
vt 0.636437 0.107780
vt 0.613584 0.187508
vt 0.671411 0.247626
vt 0.610159 0.275042
vt 0.876886 0.202463
vt 0.819731 0.157293
vt 0.861004 0.137186
vt 0.687045 0.196428
vt 0.693807 0.237976
vt 0.718566 0.688814
vt 0.715025 0.629422
vt 0.737882 0.669785
vt 0.698984 0.289784
vt 0.828957 0.203751
vt 0.691718 0.634946
vt 0.894140 0.520748
vt 0.999869 0.572176
vt 0.924782 0.589191
vt 0.622647 0.556598
vt 0.641577 0.412582
vt 0.682964 0.484570
vt 0.996109 0.681653
vt 0.922090 0.662525
vt 0.634848 0.841066
vt 0.575048 0.738388
vt 0.669256 0.743241
vt 0.837258 0.477127
vt 0.950972 0.473475
vt 0.747217 0.446173
vt 0.745403 0.432839
vt 0.745726 0.002503
vt 0.741392 0.071362
vt 0.825672 0.521606
vt 0.853240 0.551725
vt 0.763278 0.721655
vt 0.873876 0.600764
vt 0.873109 0.652485
vt 0.713286 0.524681
vt 0.771750 0.856325
vt 0.821408 0.845582
vt 0.719065 0.114378
vt 0.927926 0.297504
vt 0.947504 0.198849
vt 0.542719 0.339048
vt 0.918894 0.103290
vt 0.534757 0.235723
vt 0.538867 0.175278
vt 0.702395 0.000131
vt 0.601536 0.031633
vt 0.866989 0.377450
vt 0.633964 0.651691
vt 0.550180 0.673500
vt 0.818644 0.091846
vt 0.851165 0.039665
vt 0.889548 0.720356
vt 0.858925 0.687746
vt 0.549875 0.491827
vt 0.544679 0.603813
vt 0.489190 0.592645
vt 0.943418 0.775083
vt 0.801993 0.126000
vt 0.666123 0.193874
vt 0.793725 0.202985
vt 0.800752 0.162501
vt 0.809716 0.203331
vt 0.805973 0.687394
vt 0.853509 0.649962
vt 0.837660 0.688479
vt 0.828564 0.402638
vt 0.754109 0.345351
vt 0.790676 0.333292
vt 0.755550 0.133839
vt 0.794649 0.081872
vt 0.782447 0.126366
vt 0.865045 0.828315
vt 0.861117 0.740408
vt 0.906228 0.805271
vt 0.773179 0.541160
vt 0.807501 0.468816
vt 0.802909 0.525771
vt 0.770838 0.075886
vt 0.818793 0.023395
vt 0.754418 0.445233
vt 0.836171 0.608901
vt 0.835080 0.562197
vt 0.853354 0.605075
vt 0.749774 0.268084
vt 0.801400 0.243993
vt 0.778593 0.276494
vt 0.837121 0.647524
vt 0.787262 0.238154
vt 0.784614 0.166042
vt 0.820250 0.570610
vt 0.830063 0.755286
vt 0.489190 0.166294
vt 0.489688 0.248573
vt 0.519744 0.090307
vt 0.493524 0.688325
vt 0.559239 0.118548
vt 0.799037 0.280102
vt 0.865826 0.415203
vt 0.737927 0.669815
vt 0.837050 0.647556
vt 0.752792 0.433227
vt 0.784461 0.011197
vt 0.742163 0.520714
vt 0.820358 0.570838
vt 0.725198 0.286995
vt 0.785270 0.168189
vt 0.787912 0.710995
vt 0.806726 0.686386
vt 0.739991 0.217147
vt 0.741113 0.212094
vt 0.741272 0.211433
vt 0.778286 0.638689
vt 0.715061 0.629517
vt 0.776165 0.631328
vt 0.746929 0.213288
vt 0.744412 0.200376
vt 0.763459 0.201587
vt 0.773162 0.606340
vt 0.715209 0.580777
vt 0.741569 0.171575
vt 0.740907 0.188930
vt 0.727339 0.180426
vt 0.749047 0.172535
vt 0.743639 0.182685
vt 0.774307 0.542128
vt 0.773884 0.598326
vt 0.787390 0.237848
vt 0.750762 0.267151
vt 0.693786 0.237726
vt 0.836142 0.609002
vt 0.701463 0.158833
vt 0.794139 0.202868
vt 0.766021 0.146083
vt 0.740748 0.121322
vt 0.687079 0.196269
vt 0.781187 0.630610
vt 0.780604 0.638549
vt 0.774047 0.619073
vt 0.778346 0.605991
vt 0.779999 0.618302
vt 0.776844 0.598626
vt 0.739531 0.200599
vt 0.745163 0.189335
vt 0.741024 0.211533
vt 0.741109 0.210834
vt 0.745467 0.183115
vt 0.720034 0.198662
vt 0.760246 0.184971
vt 0.742350 0.217038
vt 0.735776 0.213841
vt 0.722514 0.221019
vt 0.772273 0.177731
vt 0.767316 0.190644
vt 0.744589 0.231834
vt 0.759383 0.221424
vt 0.754740 0.161282
vt 0.716925 0.171587
vt 0.706157 0.197537
vt 0.740683 0.157628
vt 0.777639 0.201262
vt 0.735993 0.232128
vt 0.768560 0.190680
vt 0.767257 0.192731
vt 0.768536 0.192932
vt 0.277294 0.135552
vt 0.254250 0.079669
vt 0.287777 0.083342
vt 0.245220 0.318126
vt 0.193877 0.268594
vt 0.216080 0.262797
vt 0.243641 0.549731
vt 0.197787 0.499064
vt 0.236273 0.485756
vt 0.266436 0.723904
vt 0.207653 0.699668
vt 0.225113 0.686473
vt 0.345959 0.579536
vt 0.341601 0.509243
vt 0.389371 0.555397
vt 0.238022 0.779946
vt 0.158346 0.744138
vt 0.190002 0.594237
vt 0.131387 0.659698
vt 0.125106 0.568090
vt 0.357836 0.677332
vt 0.413198 0.623276
vt 0.403733 0.695265
vt 0.208593 0.647273
vt 0.213922 0.603116
vt 0.213160 0.216577
vt 0.213289 0.160274
vt 0.232531 0.177204
vt 0.216582 0.548987
vt 0.362376 0.627364
vt 0.190818 0.212548
vt 0.484628 0.252204
vt 0.389387 0.307699
vt 0.413344 0.241433
vt 0.153257 0.427039
vt 0.129186 0.290268
vt 0.190286 0.355961
vt 0.473889 0.150452
vt 0.406035 0.173003
vt 0.075520 0.120630
vt 0.126852 0.021199
vt 0.164029 0.111481
vt 0.446082 0.347737
vt 0.339092 0.352968
vt 0.254787 0.389384
vt 0.283400 0.855621
vt 0.274541 0.778511
vt 0.217323 0.315983
vt 0.324822 0.311837
vt 0.348725 0.281510
vt 0.253600 0.126958
vt 0.364832 0.234012
vt 0.360800 0.185513
vt 0.254557 0.000131
vt 0.301510 0.007702
vt 0.246242 0.732842
vt 0.453580 0.516383
vt 0.488928 0.617716
vt 0.053979 0.503851
vt 0.470979 0.725525
vt 0.047422 0.611082
vt 0.234473 0.859611
vt 0.122848 0.827888
vt 0.379297 0.443298
vt 0.254272 0.402123
vt 0.135311 0.199579
vt 0.360943 0.749540
vt 0.402500 0.804841
vt 0.372058 0.120943
vt 0.345341 0.153318
vt 0.062683 0.355102
vt 0.053019 0.249061
vt 0.419047 0.066668
vt 0.340233 0.712902
vt 0.186661 0.650942
vt 0.338238 0.672648
vt 0.325506 0.631978
vt 0.342229 0.629809
vt 0.342555 0.189132
vt 0.295646 0.156776
vt 0.325345 0.153902
vt 0.337526 0.424078
vt 0.269465 0.487938
vt 0.261007 0.401270
vt 0.334508 0.762686
vt 0.286719 0.706996
vt 0.318352 0.713877
vt 0.344304 0.103853
vt 0.343104 0.021538
vt 0.382711 0.040739
vt 0.311395 0.363103
vt 0.273665 0.296802
vt 0.302922 0.309445
vt 0.366670 0.826967
vt 0.307613 0.771224
vt 0.262020 0.389733
vt 0.330859 0.272931
vt 0.328815 0.228908
vt 0.345246 0.231348
vt 0.328201 0.588068
vt 0.271161 0.567599
vt 0.300654 0.556368
vt 0.327310 0.192458
vt 0.313769 0.595617
vt 0.322697 0.669103
vt 0.307627 0.496994
vt 0.316251 0.266053
vt 0.314403 0.091686
vt 0.000962 0.262030
vt 0.055081 0.182953
vt 0.000131 0.684786
vt 0.000131 0.598269
vt 0.052683 0.674648
vt 0.033359 0.765697
vt 0.000950 0.171490
vt 0.075295 0.734737
vt 0.321723 0.550690
vt 0.371111 0.408894
vt 0.232565 0.177207
vt 0.327269 0.192460
vt 0.327600 0.843694
vt 0.245298 0.318063
vt 0.316231 0.265963
vt 0.244004 0.549771
vt 0.321868 0.670336
vt 0.277342 0.135602
vt 0.264295 0.621704
vt 0.265805 0.626926
vt 0.259881 0.625701
vt 0.272393 0.204332
vt 0.270835 0.211448
vt 0.213189 0.216548
vt 0.269976 0.639788
vt 0.272143 0.625322
vt 0.291191 0.636858
vt 0.269432 0.235406
vt 0.216082 0.262736
vt 0.266411 0.652948
vt 0.266904 0.672528
vt 0.251761 0.662866
vt 0.269257 0.659732
vt 0.274969 0.671160
vt 0.270637 0.243266
vt 0.274674 0.295972
vt 0.313702 0.595680
vt 0.213889 0.603206
vt 0.328786 0.228879
vt 0.225068 0.686445
vt 0.325351 0.631769
vt 0.288856 0.705006
vt 0.266015 0.724364
vt 0.208608 0.647319
vt 0.275636 0.211821
vt 0.274596 0.204330
vt 0.274451 0.235420
vt 0.269558 0.223207
vt 0.275254 0.223590
vt 0.273452 0.243070
vt 0.296414 0.157696
vt 0.271111 0.652099
vt 0.264608 0.639990
vt 0.265847 0.627317
vt 0.265944 0.627280
vt 0.265909 0.627304
vt 0.271318 0.658993
vt 0.243490 0.643198
vt 0.288619 0.655706
vt 0.266899 0.621597
vt 0.245154 0.618977
vt 0.228751 0.645096
vt 0.296390 0.648399
vt 0.303974 0.662257
vt 0.268317 0.605810
vt 0.259006 0.606167
vt 0.285175 0.615711
vt 0.280027 0.684540
vt 0.240820 0.672779
vt 0.265645 0.688341
vt 0.307087 0.635641
vt 0.272135 0.568340
vt 0.297953 0.648327
vt 0.296185 0.646230
vt 0.297678 0.645870
vt 0.534729 0.773957
vt 0.035907 0.089016
s 0
usemtl Material.001
f 25/1/1 92/2/1 102/3/1
f 13/4/2 93/5/2 98/6/2
f 34/7/3 94/8/3 104/9/3
f 42/10/4 91/11/4 106/12/4
f 40/13/5 14/14/5 38/15/5
f 39/16/6 42/10/6 50/17/6
f 35/18/6 16/19/6 37/20/6
f 36/21/5 44/22/5 49/23/5
f 16/19/4 95/24/4 97/25/4
f 43/26/2 96/27/2 105/28/2
f 6/29/4 97/25/4 94/8/4
f 37/20/6 6/29/6 34/7/6
f 38/15/5 11/30/5 36/21/5
f 10/31/2 98/6/2 96/27/2
f 32/32/5 22/33/5 30/34/5
f 31/35/6 20/36/6 28/37/6
f 30/34/5 45/38/5 48/39/5
f 46/40/7 72/41/7 47/42/7
f 25/1/6 46/40/6 47/42/6
f 26/43/5 24/44/5 32/32/5
f 101/45/8 20/36/8 99/46/8
f 39/16/1 100/47/1 103/48/1
f 93/5/9 28/37/9 101/45/9
f 7/49/5 32/32/5 15/50/5
f 4/51/6 47/42/6 43/26/6
f 10/31/6 31/35/6 13/4/6
f 9/52/5 48/39/5 41/53/5
f 13/4/6 28/37/6 8/54/6
f 15/50/5 30/34/5 9/52/5
f 18/55/1 102/3/1 100/56/1
f 2/57/1 103/48/1 91/11/1
f 24/58/5 36/21/5 22/59/5
f 23/60/6 34/7/6 20/36/6
f 22/59/5 49/23/5 45/61/5
f 35/18/10 74/62/10 73/63/10
f 18/64/6 50/17/6 46/65/6
f 19/66/5 38/15/5 24/58/5
f 20/36/11 104/9/11 99/46/11
f 29/67/12 72/41/12 67/68/12
f 45/61/5 33/69/5 17/70/5
f 41/53/5 27/71/5 3/72/5
f 43/26/6 29/67/6 10/31/6
f 23/73/13 69/74/13 70/75/13
f 48/39/5 17/76/5 27/71/5
f 4/51/2 105/28/2 92/2/2
f 49/23/5 1/77/5 33/69/5
f 50/17/6 12/78/6 35/18/6
f 12/78/4 106/12/4 95/24/4
f 55/79/4 89/80/4 78/81/4
f 52/82/2 88/83/2 21/84/2
f 82/85/3 64/86/3 87/87/3
f 51/88/1 86/89/1 90/90/1
f 60/91/1 85/92/1 83/93/1
f 53/94/3 84/95/3 76/96/3
f 63/97/1 83/98/1 86/89/1
f 61/99/14 82/85/14 84/95/14
f 56/100/2 81/101/2 79/102/2
f 54/103/4 80/104/4 77/105/4
f 65/106/2 79/102/2 88/83/2
f 57/107/4 78/81/4 80/104/4
f 66/108/4 90/90/4 89/80/4
f 64/86/3 77/105/3 87/87/3
f 58/109/2 76/96/2 81/101/2
f 62/110/1 21/84/1 85/92/1
f 67/68/6 70/75/6 69/74/6
f 68/111/6 74/62/6 70/112/6
f 71/113/6 73/63/6 68/111/6
f 72/41/6 68/114/6 67/68/6
f 29/67/12 69/74/12 31/35/12
f 46/65/7 75/115/7 71/113/7
f 23/60/13 74/62/13 37/20/13
f 35/18/10 75/115/10 50/17/10
f 85/92/1 3/72/1 27/71/1
f 81/101/2 7/49/2 15/50/2
f 87/87/3 5/116/3 40/13/3
f 89/80/4 1/77/4 44/22/4
f 80/104/4 11/30/4 14/14/4
f 88/83/2 9/52/2 41/53/2
f 77/105/4 14/14/4 5/116/4
f 79/102/2 15/50/2 9/52/2
f 84/95/3 19/117/3 26/43/3
f 86/89/1 17/70/1 33/69/1
f 76/96/3 26/43/3 7/49/3
f 83/93/1 27/71/1 17/76/1
f 90/90/1 33/69/1 1/77/1
f 82/85/3 40/13/3 19/66/3
f 21/84/2 41/53/2 3/72/2
f 78/81/4 44/22/4 11/30/4
f 96/27/2 121/118/2 105/28/2
f 52/82/4 122/119/4 65/106/4
f 99/46/15 64/86/15 59/120/15
f 91/11/1 63/97/1 51/88/1
f 100/56/1 62/110/1 60/91/1
f 53/94/16 101/45/16 61/99/16
f 103/48/1 60/121/1 63/97/1
f 101/45/3 59/120/3 61/99/3
f 53/94/6 109/122/2 93/5/6
f 56/100/4 120/123/4 58/109/4
f 97/25/4 111/124/4 94/8/4
f 55/79/2 124/125/2 66/108/2
f 52/82/6 107/126/17 108/127/2
f 104/9/3 54/103/3 64/86/3
f 105/28/2 107/126/2 92/2/2
f 102/3/1 52/82/1 62/110/1
f 153/128/6 141/129/6 137/130/6
f 121/118/6 127/131/6 107/126/6
f 115/132/6 135/133/6 121/118/6
f 150/134/5 140/135/5 151/136/5
f 109/122/6 133/137/6 119/138/6
f 148/139/6 143/140/6 147/141/6
f 149/142/1 146/143/1 148/139/1
f 110/144/3 129/145/3 109/122/3
f 54/103/2 118/146/2 57/107/2
f 54/103/6 111/124/17 112/147/2
f 95/24/4 117/148/4 97/25/4
f 65/106/4 116/149/4 56/100/4
f 91/11/4 123/150/4 106/12/4
f 57/107/2 114/151/2 55/79/2
f 66/108/2 125/152/2 51/88/2
f 51/88/6 126/153/2 91/11/6
f 93/5/2 119/138/2 98/6/2
f 106/12/4 113/154/4 95/24/4
f 98/6/2 115/132/2 96/27/2
f 58/109/4 110/144/4 53/94/4
f 127/131/2 136/155/2 128/156/2
f 131/157/2 134/158/2 132/159/2
f 135/133/2 132/159/2 136/155/2
f 133/137/2 130/160/2 134/158/2
f 120/123/5 130/160/5 110/144/5
f 122/119/5 132/159/5 116/149/5
f 119/138/6 131/157/6 115/132/6
f 108/127/5 136/155/5 122/119/5
f 107/126/1 128/156/1 108/127/1
f 116/149/5 134/158/5 120/123/5
f 139/161/4 144/162/4 140/135/4
f 137/130/4 142/163/4 138/164/4
f 141/129/18 140/135/18 142/163/18
f 143/140/4 145/165/4 144/162/4
f 147/141/6 139/161/6 154/166/6
f 155/167/5 145/165/5 149/142/5
f 156/168/5 142/163/5 150/134/5
f 156/168/19 137/130/19 138/164/19
f 155/167/5 140/135/5 144/162/5
f 152/169/6 139/161/6 141/129/6
f 164/170/6 154/166/6 152/169/6
f 165/171/1 168/172/1 155/167/1
f 166/173/19 153/128/19 156/168/19
f 166/173/5 150/134/5 163/174/5
f 165/171/5 149/142/5 162/175/5
f 157/176/6 154/166/6 161/177/6
f 162/175/1 148/139/1 158/178/1
f 158/178/6 147/141/6 157/176/6
f 163/174/5 151/136/5 159/179/5
f 160/180/6 152/169/6 153/128/6
f 111/124/6 164/170/6 160/180/6
f 118/146/5 159/179/5 114/151/5
f 126/153/6 157/176/6 123/150/6
f 125/152/1 158/178/1 126/153/1
f 123/150/6 161/177/6 113/154/6
f 124/125/5 162/175/5 125/152/5
f 112/147/5 163/174/5 118/146/5
f 112/147/19 160/180/19 166/173/19
f 114/151/5 165/171/5 124/125/5
f 117/148/6 161/177/6 164/170/6
f 167/181/5 169/182/5 168/172/5
f 155/167/4 169/182/4 151/136/4
f 151/136/3 170/183/3 159/179/3
f 159/179/2 167/181/2 165/171/2
f 247/184/1 188/185/1 256/186/1
f 248/187/4 183/188/4 253/189/4
f 249/190/3 197/191/3 258/192/3
f 246/193/2 205/194/2 260/195/2
f 184/196/5 203/197/5 201/198/5
f 205/194/6 202/199/6 211/200/6
f 186/201/6 198/202/6 200/203/6
f 207/204/5 199/205/5 210/206/5
f 250/207/2 186/201/2 252/208/2
f 251/209/4 206/210/4 259/211/4
f 252/208/2 176/212/2 249/190/2
f 176/212/6 200/203/6 197/191/6
f 181/213/5 201/198/5 199/205/5
f 253/189/4 180/214/4 251/209/4
f 22/215/5 195/216/5 193/217/5
f 20/218/6 194/219/6 191/220/6
f 45/221/5 193/217/5 209/222/5
f 229/223/7 46/224/7 208/225/7
f 46/224/6 188/185/6 208/225/6
f 24/226/5 189/227/5 195/216/5
f 255/228/8 20/218/8 191/220/8
f 100/229/1 202/199/1 257/230/1
f 248/187/3 191/220/3 178/231/3
f 195/216/5 177/232/5 185/233/5
f 208/225/6 174/234/6 206/210/6
f 194/219/6 180/214/6 183/188/6
f 209/222/5 179/235/5 204/236/5
f 191/220/6 183/188/6 178/231/6
f 193/217/5 185/233/5 179/235/5
f 256/186/1 18/237/1 100/238/1
f 257/230/1 172/239/1 246/193/1
f 199/205/5 24/240/5 22/241/5
f 197/191/6 23/242/6 20/218/6
f 210/206/5 22/241/5 45/243/5
f 198/202/12 231/244/12 200/203/12
f 211/200/6 18/245/6 46/246/6
f 201/198/5 19/247/5 24/240/5
f 258/192/20 20/218/20 254/248/20
f 192/249/10 229/223/10 208/225/10
f 196/250/5 45/243/5 17/251/5
f 190/252/5 204/236/5 173/253/5
f 192/249/6 206/210/6 180/214/6
f 23/254/13 228/255/13 194/219/13
f 17/256/5 209/222/5 190/252/5
f 259/211/4 174/234/4 247/184/4
f 171/257/5 210/206/5 196/250/5
f 182/258/6 211/200/6 198/202/6
f 260/195/2 182/258/2 250/207/2
f 244/259/2 216/260/2 235/261/2
f 243/262/4 213/263/4 187/264/4
f 82/265/21 224/266/21 220/267/21
f 241/268/1 212/269/1 245/270/1
f 240/271/1 60/272/1 83/273/1
f 239/274/3 214/275/3 233/276/3
f 83/277/1 223/278/1 241/268/1
f 82/265/14 221/279/14 239/274/14
f 238/280/4 217/281/4 236/282/4
f 237/283/2 215/284/2 234/285/2
f 236/282/4 225/286/4 243/262/4
f 235/261/2 218/287/2 237/283/2
f 245/270/2 226/288/2 244/259/2
f 234/285/3 224/266/3 242/289/3
f 233/276/4 219/290/4 238/280/4
f 187/264/1 222/291/1 240/271/1
f 70/292/6 227/293/6 228/255/6
f 231/244/6 68/294/6 70/295/6
f 230/296/6 71/297/6 68/294/6
f 68/298/6 229/223/6 227/293/6
f 228/255/10 192/249/10 194/219/10
f 46/246/7 232/299/7 211/200/7
f 231/244/13 23/242/13 200/203/13
f 232/299/12 198/202/12 211/200/12
f 173/253/1 240/271/1 190/252/1
f 177/232/4 238/280/4 185/233/4
f 175/300/3 242/289/3 203/197/3
f 171/257/2 244/259/2 207/204/2
f 181/213/2 237/283/2 184/196/2
f 179/235/4 243/262/4 204/236/4
f 184/196/2 234/285/2 175/300/2
f 185/233/4 236/282/4 179/235/4
f 19/301/3 239/274/3 189/227/3
f 17/251/1 241/268/1 196/250/1
f 189/227/3 233/276/3 177/232/3
f 190/252/1 83/273/1 17/256/1
f 196/250/1 245/270/1 171/257/1
f 203/197/3 82/265/3 19/247/3
f 204/236/4 187/264/4 173/253/4
f 207/204/2 235/261/2 181/213/2
f 275/302/4 251/209/4 259/211/4
f 276/303/2 213/263/2 225/286/2
f 224/266/22 254/248/22 220/267/22
f 223/278/1 246/193/1 212/269/1
f 222/291/1 100/238/1 60/272/1
f 214/275/23 255/228/23 248/187/23
f 60/304/1 257/230/1 223/278/1
f 220/267/3 255/228/3 221/279/3
f 263/305/6 214/275/6 248/187/2
f 274/306/2 217/281/2 219/290/2
f 265/307/2 252/208/2 249/190/2
f 278/308/4 216/260/4 226/288/4
f 213/263/6 261/309/2 247/184/6
f 215/284/3 258/192/3 224/266/3
f 261/309/4 259/211/4 247/184/4
f 213/263/1 256/186/1 222/291/1
f 307/310/6 295/311/6 306/312/6
f 281/313/6 275/302/6 261/309/6
f 289/314/6 269/315/6 275/302/6
f 294/316/5 304/317/5 305/318/5
f 287/319/6 263/305/6 273/320/6
f 297/321/6 302/322/6 301/323/6
f 300/324/1 303/325/1 302/322/1
f 283/326/3 264/327/3 263/305/3
f 272/328/4 215/284/4 218/287/4
f 215/284/6 265/307/2 249/190/6
f 271/329/2 250/207/2 252/208/2
f 270/330/2 225/286/2 217/281/2
f 277/331/2 246/193/2 260/195/2
f 268/332/4 218/287/4 216/260/4
f 279/333/4 226/288/4 212/269/4
f 280/334/6 212/269/6 246/193/2
f 273/320/4 248/187/4 253/189/4
f 267/335/2 260/195/2 250/207/2
f 269/315/4 253/189/4 251/209/4
f 264/327/2 219/290/2 214/275/2
f 290/336/4 281/313/4 282/337/4
f 288/338/4 285/339/4 286/340/4
f 286/340/4 289/314/4 290/336/4
f 284/341/4 287/319/4 288/338/4
f 284/341/5 274/306/5 264/327/5
f 286/340/5 276/303/5 270/330/5
f 285/339/6 273/320/6 269/315/6
f 290/336/5 262/342/5 276/303/5
f 282/337/1 261/309/1 262/342/1
f 288/338/5 270/330/5 274/306/5
f 298/343/2 293/344/2 294/316/2
f 296/345/2 291/346/2 292/347/2
f 294/316/24 295/311/24 296/345/24
f 299/348/2 297/321/2 298/343/2
f 293/344/6 301/323/6 308/349/6
f 299/348/5 309/350/5 303/325/5
f 296/345/5 310/351/5 304/317/5
f 310/351/25 291/346/25 307/310/25
f 309/350/5 294/316/5 305/318/5
f 306/312/6 293/344/6 308/349/6
f 318/352/6 308/349/6 315/353/6
f 322/354/1 319/355/1 309/350/1
f 320/356/25 307/310/25 314/357/25
f 304/317/5 320/356/5 317/358/5
f 303/325/5 319/355/5 316/359/5
f 308/349/6 311/360/6 315/353/6
f 302/322/1 316/359/1 312/361/1
f 301/323/6 312/361/6 311/360/6
f 305/318/5 317/358/5 313/362/5
f 314/357/6 306/312/6 318/352/6
f 265/307/6 318/352/6 271/329/6
f 313/362/5 272/328/5 268/332/5
f 311/360/6 280/334/6 277/331/6
f 312/361/1 279/333/1 280/334/1
f 315/353/6 277/331/6 267/335/6
f 316/359/5 278/308/5 279/333/5
f 317/358/5 266/363/5 272/328/5
f 266/363/25 314/357/25 265/307/25
f 319/355/5 268/332/5 278/308/5
f 271/329/6 315/353/6 267/335/6
f 321/364/5 323/365/5 324/366/5
f 323/365/2 309/350/2 305/318/2
f 324/366/3 305/318/3 313/362/3
f 321/364/4 313/362/4 319/355/4
f 25/1/1 4/51/1 92/2/1
f 13/4/2 8/54/2 93/5/2
f 34/7/3 6/29/3 94/8/3
f 42/10/4 2/57/4 91/11/4
f 40/13/5 5/116/5 14/14/5
f 39/16/6 2/57/6 42/10/6
f 35/18/6 12/78/6 16/19/6
f 36/21/5 11/30/5 44/22/5
f 16/19/4 12/78/4 95/24/4
f 43/26/2 10/31/2 96/27/2
f 6/29/4 16/19/4 97/25/4
f 37/20/6 16/19/6 6/29/6
f 38/15/5 14/14/5 11/30/5
f 10/31/2 13/4/2 98/6/2
f 32/32/5 24/44/5 22/33/5
f 31/35/6 23/73/6 20/36/6
f 30/34/5 22/33/5 45/38/5
f 46/40/7 71/367/7 72/41/7
f 25/1/6 18/55/6 46/40/6
f 26/43/5 19/117/5 24/44/5
f 101/45/8 28/37/8 20/36/8
f 39/16/1 18/64/1 100/47/1
f 93/5/3 8/54/3 28/37/3
f 7/49/5 26/43/5 32/32/5
f 4/51/6 25/1/6 47/42/6
f 10/31/6 29/67/6 31/35/6
f 9/52/5 30/34/5 48/39/5
f 13/4/6 31/35/6 28/37/6
f 15/50/5 32/32/5 30/34/5
f 18/55/1 25/1/1 102/3/1
f 2/57/1 39/16/1 103/48/1
f 24/58/5 38/15/5 36/21/5
f 23/60/6 37/20/6 34/7/6
f 22/59/5 36/21/5 49/23/5
f 35/18/10 37/20/10 74/62/10
f 18/64/6 39/16/6 50/17/6
f 19/66/5 40/13/5 38/15/5
f 20/36/3 34/7/3 104/9/3
f 29/67/12 47/42/12 72/41/12
f 45/61/5 49/23/5 33/69/5
f 41/53/5 48/39/5 27/71/5
f 43/26/6 47/42/6 29/67/6
f 23/73/13 31/35/13 69/74/13
f 48/39/5 45/38/5 17/76/5
f 4/51/2 43/26/2 105/28/2
f 49/23/5 44/22/5 1/77/5
f 50/17/6 42/10/6 12/78/6
f 12/78/4 42/10/4 106/12/4
f 55/79/4 66/108/4 89/80/4
f 52/82/2 65/106/2 88/83/2
f 82/85/26 59/120/26 64/86/26
f 51/88/1 63/97/1 86/89/1
f 60/91/1 62/110/1 85/92/1
f 53/94/27 61/99/27 84/95/27
f 63/97/1 60/121/1 83/98/1
f 61/99/14 59/120/14 82/85/14
f 56/100/2 58/109/2 81/101/2
f 54/103/4 57/107/4 80/104/4
f 65/106/2 56/100/2 79/102/2
f 57/107/4 55/79/4 78/81/4
f 66/108/4 51/88/4 90/90/4
f 64/86/3 54/103/3 77/105/3
f 58/109/2 53/94/2 76/96/2
f 62/110/1 52/82/1 21/84/1
f 67/68/6 68/114/6 70/75/6
f 68/111/6 73/63/6 74/62/6
f 71/113/6 75/115/6 73/63/6
f 72/41/6 71/367/6 68/114/6
f 29/67/12 67/68/12 69/74/12
f 46/65/7 50/17/7 75/115/7
f 23/60/13 70/112/13 74/62/13
f 35/18/10 73/63/10 75/115/10
f 85/92/1 21/84/1 3/72/1
f 81/101/2 76/96/2 7/49/2
f 87/87/3 77/105/3 5/116/3
f 89/80/4 90/90/4 1/77/4
f 80/104/4 78/81/4 11/30/4
f 88/83/2 79/102/2 9/52/2
f 77/105/4 80/104/4 14/14/4
f 79/102/2 81/101/2 15/50/2
f 84/95/3 82/85/3 19/117/3
f 86/89/1 83/98/1 17/70/1
f 76/96/3 84/95/3 26/43/3
f 83/93/1 85/92/1 27/71/1
f 90/90/1 86/89/1 33/69/1
f 82/85/3 87/87/3 40/13/3
f 21/84/2 88/83/2 41/53/2
f 78/81/4 89/80/4 44/22/4
f 96/27/2 115/132/2 121/118/2
f 52/82/4 108/127/4 122/119/4
f 99/46/15 104/9/15 64/86/15
f 91/11/1 103/48/1 63/97/1
f 100/56/1 102/3/1 62/110/1
f 53/94/16 93/5/16 101/45/16
f 103/48/1 100/47/1 60/121/1
f 101/45/3 99/46/3 59/120/3
f 53/94/2 110/144/6 109/122/17
f 56/100/4 116/149/4 120/123/4
f 97/25/4 117/148/4 111/124/4
f 55/79/2 114/151/2 124/125/2
f 52/82/6 92/2/2 107/126/6
f 104/9/3 94/8/3 54/103/3
f 105/28/2 121/118/2 107/126/2
f 102/3/1 92/2/1 52/82/1
f 153/128/6 152/169/6 141/129/6
f 121/118/6 135/133/6 127/131/6
f 115/132/6 131/157/6 135/133/6
f 150/134/5 142/163/5 140/135/5
f 109/122/6 129/145/6 133/137/6
f 148/139/6 146/143/6 143/140/6
f 149/142/1 145/165/1 146/143/1
f 110/144/3 130/160/3 129/145/3
f 54/103/2 112/147/2 118/146/2
f 54/103/6 94/8/2 111/124/6
f 95/24/4 113/154/4 117/148/4
f 65/106/4 122/119/4 116/149/4
f 91/11/4 126/153/4 123/150/4
f 57/107/2 118/146/2 114/151/2
f 66/108/2 124/125/2 125/152/2
f 51/88/2 125/152/6 126/153/17
f 93/5/2 109/122/2 119/138/2
f 106/12/4 123/150/4 113/154/4
f 98/6/2 119/138/2 115/132/2
f 58/109/4 120/123/4 110/144/4
f 127/131/2 135/133/2 136/155/2
f 131/157/2 133/137/2 134/158/2
f 135/133/2 131/157/2 132/159/2
f 133/137/2 129/145/2 130/160/2
f 120/123/5 134/158/5 130/160/5
f 122/119/5 136/155/5 132/159/5
f 119/138/6 133/137/6 131/157/6
f 108/127/5 128/156/5 136/155/5
f 107/126/1 127/131/1 128/156/1
f 116/149/5 132/159/5 134/158/5
f 139/161/4 143/140/4 144/162/4
f 137/130/4 141/129/4 142/163/4
f 141/129/18 139/161/18 140/135/18
f 143/140/4 146/143/4 145/165/4
f 147/141/6 143/140/6 139/161/6
f 155/167/5 144/162/5 145/165/5
f 156/168/5 138/164/5 142/163/5
f 156/168/19 153/128/19 137/130/19
f 155/167/5 151/136/5 140/135/5
f 152/169/6 154/166/6 139/161/6
f 164/170/6 161/177/6 154/166/6
f 165/171/1 167/181/1 168/172/1
f 166/173/19 160/180/19 153/128/19
f 166/173/5 156/168/5 150/134/5
f 165/171/5 155/167/5 149/142/5
f 157/176/6 147/141/6 154/166/6
f 162/175/1 149/142/1 148/139/1
f 158/178/6 148/139/6 147/141/6
f 163/174/5 150/134/5 151/136/5
f 160/180/6 164/170/6 152/169/6
f 111/124/6 117/148/6 164/170/6
f 118/146/5 163/174/5 159/179/5
f 126/153/6 158/178/6 157/176/6
f 125/152/1 162/175/1 158/178/1
f 123/150/6 157/176/6 161/177/6
f 124/125/5 165/171/5 162/175/5
f 112/147/5 166/173/5 163/174/5
f 112/147/19 111/124/19 160/180/19
f 114/151/5 159/179/5 165/171/5
f 117/148/6 113/154/6 161/177/6
f 167/181/5 170/183/5 169/182/5
f 155/167/4 168/172/4 169/182/4
f 151/136/3 169/182/3 170/183/3
f 159/179/2 170/183/2 167/181/2
f 247/184/1 174/234/1 188/185/1
f 248/187/4 178/231/4 183/188/4
f 249/190/3 176/212/3 197/191/3
f 246/193/2 172/239/2 205/194/2
f 184/196/5 175/300/5 203/197/5
f 205/194/6 172/239/6 202/199/6
f 186/201/6 182/258/6 198/202/6
f 207/204/5 181/213/5 199/205/5
f 250/207/2 182/258/2 186/201/2
f 251/209/4 180/214/4 206/210/4
f 252/208/2 186/201/2 176/212/2
f 176/212/6 186/201/6 200/203/6
f 181/213/5 184/196/5 201/198/5
f 253/189/4 183/188/4 180/214/4
f 22/215/5 24/226/5 195/216/5
f 20/218/6 23/254/6 194/219/6
f 45/221/5 22/215/5 193/217/5
f 229/223/7 71/368/7 46/224/7
f 46/224/6 18/237/6 188/185/6
f 24/226/5 19/301/5 189/227/5
f 255/228/8 254/248/8 20/218/8
f 100/229/1 18/245/1 202/199/1
f 248/187/28 255/228/28 191/220/28
f 195/216/5 189/227/5 177/232/5
f 208/225/6 188/185/6 174/234/6
f 194/219/6 192/249/6 180/214/6
f 209/222/5 193/217/5 179/235/5
f 191/220/6 194/219/6 183/188/6
f 193/217/5 195/216/5 185/233/5
f 256/186/1 188/185/1 18/237/1
f 257/230/1 202/199/1 172/239/1
f 199/205/5 201/198/5 24/240/5
f 197/191/6 200/203/6 23/242/6
f 210/206/5 199/205/5 22/241/5
f 198/202/12 230/296/12 231/244/12
f 211/200/6 202/199/6 18/245/6
f 201/198/5 203/197/5 19/247/5
f 258/192/3 197/191/3 20/218/3
f 192/249/10 227/293/10 229/223/10
f 196/250/5 210/206/5 45/243/5
f 190/252/5 209/222/5 204/236/5
f 192/249/6 208/225/6 206/210/6
f 23/254/13 70/292/13 228/255/13
f 17/256/5 45/221/5 209/222/5
f 259/211/4 206/210/4 174/234/4
f 171/257/5 207/204/5 210/206/5
f 182/258/6 205/194/6 211/200/6
f 260/195/2 205/194/2 182/258/2
f 244/259/2 226/288/2 216/260/2
f 243/262/4 225/286/4 213/263/4
f 82/265/3 242/289/3 224/266/3
f 241/268/1 223/278/1 212/269/1
f 240/271/1 222/291/1 60/272/1
f 239/274/29 221/279/29 214/275/29
f 83/277/1 60/304/1 223/278/1
f 82/265/14 220/267/14 221/279/14
f 238/280/4 219/290/4 217/281/4
f 237/283/2 218/287/2 215/284/2
f 236/282/4 217/281/4 225/286/4
f 235/261/2 216/260/2 218/287/2
f 245/270/2 212/269/2 226/288/2
f 234/285/3 215/284/3 224/266/3
f 233/276/4 214/275/4 219/290/4
f 187/264/1 213/263/1 222/291/1
f 70/292/6 68/298/6 227/293/6
f 231/244/6 230/296/6 68/294/6
f 230/296/6 232/299/6 71/297/6
f 68/298/6 71/368/6 229/223/6
f 228/255/10 227/293/10 192/249/10
f 46/246/7 71/297/7 232/299/7
f 231/244/13 70/295/13 23/242/13
f 232/299/12 230/296/12 198/202/12
f 173/253/1 187/264/1 240/271/1
f 177/232/4 233/276/4 238/280/4
f 175/300/3 234/285/3 242/289/3
f 171/257/2 245/270/2 244/259/2
f 181/213/2 235/261/2 237/283/2
f 179/235/4 236/282/4 243/262/4
f 184/196/2 237/283/2 234/285/2
f 185/233/4 238/280/4 236/282/4
f 19/301/3 82/265/3 239/274/3
f 17/251/1 83/277/1 241/268/1
f 189/227/3 239/274/3 233/276/3
f 190/252/1 240/271/1 83/273/1
f 196/250/1 241/268/1 245/270/1
f 203/197/3 242/289/3 82/265/3
f 204/236/4 243/262/4 187/264/4
f 207/204/2 244/259/2 235/261/2
f 275/302/4 269/315/4 251/209/4
f 276/303/2 262/342/2 213/263/2
f 224/266/22 258/192/22 254/248/22
f 223/278/1 257/230/1 246/193/1
f 222/291/1 256/186/1 100/238/1
f 214/275/23 221/279/23 255/228/23
f 60/304/1 100/229/1 257/230/1
f 220/267/3 254/248/3 255/228/3
f 263/305/2 264/327/2 214/275/2
f 274/306/2 270/330/2 217/281/2
f 265/307/2 271/329/2 252/208/2
f 278/308/4 268/332/4 216/260/4
f 213/263/2 262/342/6 261/309/17
f 215/284/3 249/190/3 258/192/3
f 261/309/4 275/302/4 259/211/4
f 213/263/1 247/184/1 256/186/1
f 307/310/6 291/346/6 295/311/6
f 281/313/6 289/314/6 275/302/6
f 289/314/6 285/339/6 269/315/6
f 294/316/5 296/345/5 304/317/5
f 287/319/6 283/326/6 263/305/6
f 297/321/6 300/324/6 302/322/6
f 300/324/1 299/348/1 303/325/1
f 283/326/3 284/341/3 264/327/3
f 272/328/4 266/363/4 215/284/4
f 215/284/2 266/363/6 265/307/17
f 271/329/2 267/335/2 250/207/2
f 270/330/2 276/303/2 225/286/2
f 277/331/2 280/334/2 246/193/2
f 268/332/4 272/328/4 218/287/4
f 279/333/4 278/308/4 226/288/4
f 280/334/4 279/333/4 212/269/4
f 273/320/4 263/305/4 248/187/4
f 267/335/2 277/331/2 260/195/2
f 269/315/4 273/320/4 253/189/4
f 264/327/2 274/306/2 219/290/2
f 290/336/4 289/314/4 281/313/4
f 288/338/4 287/319/4 285/339/4
f 286/340/4 285/339/4 289/314/4
f 284/341/4 283/326/4 287/319/4
f 284/341/5 288/338/5 274/306/5
f 286/340/5 290/336/5 276/303/5
f 285/339/6 287/319/6 273/320/6
f 290/336/5 282/337/5 262/342/5
f 282/337/1 281/313/1 261/309/1
f 288/338/5 286/340/5 270/330/5
f 298/343/2 297/321/2 293/344/2
f 296/345/2 295/311/2 291/346/2
f 294/316/24 293/344/24 295/311/24
f 299/348/2 300/324/2 297/321/2
f 293/344/6 297/321/6 301/323/6
f 299/348/5 298/343/5 309/350/5
f 296/345/5 292/347/5 310/351/5
f 310/351/25 292/347/25 291/346/25
f 309/350/5 298/343/5 294/316/5
f 306/312/6 295/311/6 293/344/6
f 318/352/6 306/312/6 308/349/6
f 322/354/1 321/364/1 319/355/1
f 320/356/25 310/351/25 307/310/25
f 304/317/5 310/351/5 320/356/5
f 303/325/5 309/350/5 319/355/5
f 308/349/6 301/323/6 311/360/6
f 302/322/1 303/325/1 316/359/1
f 301/323/6 302/322/6 312/361/6
f 305/318/5 304/317/5 317/358/5
f 314/357/6 307/310/6 306/312/6
f 265/307/6 314/357/6 318/352/6
f 313/362/5 317/358/5 272/328/5
f 311/360/6 312/361/6 280/334/6
f 312/361/1 316/359/1 279/333/1
f 315/353/6 311/360/6 277/331/6
f 316/359/5 319/355/5 278/308/5
f 317/358/5 320/356/5 266/363/5
f 266/363/25 320/356/25 314/357/25
f 319/355/5 313/362/5 268/332/5
f 271/329/6 318/352/6 315/353/6
f 321/364/5 322/354/5 323/365/5
f 323/365/2 322/354/2 309/350/2
f 324/366/3 323/365/3 305/318/3
f 321/364/4 324/366/4 313/362/4
