# Blender 4.4.1
# www.blender.org
mtllib Asteroid.mtl
o 球
v 0.013232 1.680016 -1.135907
v -0.025419 1.227705 -1.824811
v 0.046751 0.403127 -1.939371
v -0.007451 -0.029020 -1.803936
v 0.000247 -0.386049 -1.950637
v 0.053552 -1.021607 -1.523327
v 0.085954 1.882361 -0.413109
v 0.141193 1.843022 -0.714290
v 0.260627 1.676972 -1.108597
v 0.290808 1.542278 -1.446714
v 0.396423 1.168625 -1.730739
v 0.346161 0.776722 -1.840541
v 0.348499 0.401179 -1.914214
v 0.338823 -0.030869 -1.823523
v 0.385603 -0.362169 -1.846030
v 0.379058 -0.686611 -1.675120
v 0.309585 -0.919369 -1.439770
v 0.202306 -1.195837 -1.193131
v 0.227479 -1.585286 -1.065098
v 0.147875 -1.805071 -0.703560
v 0.080061 -1.784951 -0.326632
v 0.165820 1.901994 -0.387439
v 0.291439 1.886284 -0.709056
v 0.456354 1.670742 -1.029581
v 0.554749 1.517293 -1.360467
v 0.637851 1.092158 -1.495601
v 0.713889 0.777268 -1.732247
v 0.747518 0.377845 -1.787329
v 0.683849 -0.011406 -1.656346
v 0.648873 -0.347626 -1.670126
v 0.668315 -0.722124 -1.669924
v 0.624244 -1.096476 -1.529643
v 0.510715 -1.392374 -1.272981
v 0.410535 -1.487981 -0.926146
v 0.267961 -1.749453 -0.645690
v 0.155418 -1.784433 -0.301397
v 0.236439 1.881119 -0.344983
v 0.428164 1.891317 -0.652632
v 0.621670 1.662023 -0.911245
v 0.799690 1.519123 -1.220086
v 0.889454 1.064844 -1.396726
v 0.960664 0.664404 -1.411428
v 0.893029 0.312602 -1.322701
v 0.956035 -0.036519 -1.391599
v 1.121388 -0.395570 -1.657210
v 1.057335 -0.777702 -1.570461
v 0.933204 -1.116575 -1.389997
v 0.775016 -1.400555 -1.141741
v 0.541491 -1.439770 -0.766419
v 0.374387 -1.736796 -0.611829
v 0.223680 -1.783062 -0.268215
v 0.278449 1.841459 -0.296982
v 0.543743 1.890472 -0.562802
v 0.779712 1.644244 -0.768700
v 1.040544 1.507768 -1.027160
v 1.248586 1.218015 -1.247568
v 1.320318 0.738870 -1.353591
v 1.346414 0.380830 -1.293250
v 1.260154 -0.045136 -1.224767
v 1.397228 -0.368437 -1.369801
v 1.338441 -0.777837 -1.338247
v 1.149638 -1.098625 -1.116112
v 0.874632 -1.294715 -0.874966
v 0.680924 -1.444293 -0.645799
v 0.512629 -1.802714 -0.549402
v 0.277738 -1.811019 -0.241406
v 0.307465 1.847216 -0.246926
v 0.647108 1.887909 -0.444745
v 0.909282 1.613549 -0.597016
v 1.212214 1.485948 -0.812298
v 1.454427 1.207846 -0.964622
v 1.606043 0.726183 -0.999795
v 1.639748 0.397893 -1.076626
v 1.541796 0.008276 -0.996625
v 1.473066 -0.345385 -0.966498
v 1.426626 -0.746306 -0.926010
v 1.284764 -1.057017 -0.899640
v 1.124664 -1.378206 -0.776581
v 0.813893 -1.404713 -0.442164
v 0.635022 -1.832644 -0.428513
v 0.318162 -1.861766 -0.206891
v 0.039303 1.943925 -0.013871
v 0.339240 1.890250 -0.181184
v 0.727585 1.882788 -0.301938
v 1.009888 1.604688 -0.414324
v 1.328702 1.455858 -0.548315
v 1.595559 1.155155 -0.639518
v 1.632123 0.721231 -0.657393
v 1.849760 0.399080 -0.767898
v 1.866885 0.009651 -0.769043
v 1.756489 -0.377835 -0.729550
v 1.632162 -0.735837 -0.676552
v 1.549852 -1.117659 -0.649147
v 1.274521 -1.401921 -0.501925
v 0.895415 -1.442331 -0.347351
v 0.712865 -1.831141 -0.295306
v 0.353072 -1.905318 -0.150985
v 0.366274 1.928575 -0.096129
v 0.772015 1.872287 -0.144917
v 1.080934 1.628710 -0.220664
v 1.365883 1.410839 -0.263831
v 1.605850 1.080641 -0.286703
v 1.762800 0.776966 -0.346966
v 1.960142 0.391593 -0.393460
v 1.975904 0.003623 -0.393356
v 1.932452 -0.393960 -0.385572
v 1.810040 -0.762914 -0.360374
v 1.625126 -1.110533 -0.322734
v 1.319841 -1.361325 -0.216821
v 0.954864 -1.512501 -0.208193
v 0.756102 -1.822536 -0.157541
v 0.378845 -1.932446 -0.079310
v 0.379300 1.943805 -0.003988
v 0.770034 1.835770 0.022450
v 1.104887 1.653255 -0.002015
v 1.395126 1.403879 -0.002869
v 1.521667 1.022587 0.034809
v 1.852094 0.772607 0.003540
v 1.972983 0.388573 0.001589
v 2.003504 0.000770 -0.000313
v 1.948543 -0.394598 0.006952
v 1.840447 -0.755432 0.013953
v 1.649203 -1.153095 0.037668
v 1.421741 -1.387643 -0.002079
v 1.006860 -1.596449 -0.015193
v 0.768719 -1.819988 -0.009217
v 0.390239 -1.943822 -0.000192
v 0.372653 1.931062 0.085114
v 0.715138 1.736932 0.164734
v 1.047339 1.635347 0.212853
v 1.362078 1.370398 0.290643
v 1.486355 1.060023 0.314887
v 1.817613 0.765559 0.369258
v 1.923989 0.390177 0.382735
v 1.941888 -0.009542 0.394944
v 1.837906 -0.388394 0.349456
v 1.822715 -0.828531 0.343549
v 1.629451 -1.131460 0.331767
v 1.434569 -1.468458 0.268441
v 1.022745 -1.603081 0.175290
v 0.757755 -1.838639 0.146240
v 0.385700 -1.945035 0.078010
v 0.344245 1.889380 0.163151
v 0.661830 1.698109 0.252218
v 0.988379 1.629086 0.391582
v 1.146189 1.230626 0.519392
v 1.484820 1.093648 0.608016
v 1.706289 0.765334 0.706583
v 1.831702 0.389175 0.762860
v 1.755691 -0.004801 0.732513
v 1.900763 -0.421217 0.758437
v 1.798626 -0.846252 0.716606
v 1.577963 -1.123383 0.613995
v 1.297962 -1.490536 0.516743
v 1.023100 -1.622846 0.367872
v 0.717354 -1.861931 0.294707
v 0.365229 -1.944998 0.150970
v 0.295141 1.825493 0.222217
v 0.607185 1.763600 0.373499
v 0.916857 1.627620 0.615174
v 0.994268 1.223319 0.660699
v 1.370761 1.109256 0.915678
v 1.536465 0.765372 1.026658
v 1.657614 0.378406 1.117280
v 1.631430 0.039027 1.083145
v 1.754807 -0.428488 1.160525
v 1.673668 -0.824815 1.074637
v 1.352362 -1.042086 0.854054
v 1.168095 -1.473578 0.706139
v 0.960359 -1.700620 0.609094
v 0.638564 -1.864643 0.427865
v 0.329462 -1.947498 0.217680
v 0.244345 1.769897 0.255376
v 0.492879 1.776142 0.482120
v 0.749043 1.519529 0.761437
v 0.917995 1.331151 0.881087
v 1.174031 1.109785 1.172445
v 1.309654 0.765606 1.310188
v 1.389109 0.344311 1.386783
v 1.413884 0.029018 1.400153
v 1.476209 -0.414608 1.466963
v 1.419308 -0.776171 1.402165
v 1.203678 -1.077332 1.154016
v 1.058672 -1.528466 1.019537
v 0.823829 -1.745309 0.801386
v 0.522081 -1.835016 0.531445
v 0.279923 -1.951847 0.276673
v 0.209981 1.759358 0.276751
v 0.357628 1.728467 0.521492
v 0.569198 1.468463 0.849251
v 0.796481 1.415323 1.143845
v 0.947913 1.122183 1.383484
v 1.051581 0.771941 1.538494
v 1.092604 0.337257 1.580829
v 1.093998 0.010547 1.591619
v 1.106927 -0.401308 1.678715
v 0.990926 -0.749719 1.570188
v 0.931031 -1.158801 1.492448
v 0.817200 -1.536835 1.291273
v 0.643993 -1.751930 0.953374
v 0.383377 -1.776927 0.601227
v 0.219202 -1.956182 0.325285
v 0.177309 1.796034 0.301907
v 0.265159 1.802449 0.588928
v 0.459871 1.572748 1.006533
v 0.580386 1.471998 1.324932
v 0.694856 1.108342 1.568873
v 0.762388 0.773452 1.705693
v 0.755006 0.321464 1.760089
v 0.714187 -0.051223 1.706580
v 0.765481 -0.373010 1.777514
v 0.702646 -0.775419 1.699832
v 0.635660 -1.145500 1.616488
v 0.551232 -1.512731 1.430099
v 0.434116 -1.754108 1.087718
v 0.252694 -1.738903 0.658515
v 0.150288 -1.959540 0.361171
v 0.140492 1.865020 0.332819
v 0.150218 1.899744 0.662627
v 0.239133 1.627573 1.131081
v 0.274942 1.492213 1.444471
v 0.290993 1.112005 1.629210
v 0.423721 0.799689 1.926766
v 0.397965 0.322707 1.920320
v 0.382878 0.013428 1.931792
v 0.376456 -0.337327 1.850330
v 0.314725 -0.751605 1.731232
v 0.335221 -1.151828 1.698584
v 0.286838 -1.490506 1.483420
v 0.204882 -1.714554 1.131891
v 0.125497 -1.769694 0.738578
v 0.073761 -1.972069 0.386304
v 0.091755 1.930164 0.359867
v 0.038679 1.919748 0.705591
v 0.007100 1.616644 1.108211
v -0.051107 1.438033 1.424612
v -0.026134 1.176120 1.610436
v 0.002725 0.832572 2.004358
v 0.013601 0.333701 2.062089
v 0.013838 0.003405 1.878913
v -0.008265 -0.370362 1.875255
v -0.012407 -0.672235 1.708258
v -0.024362 -1.086349 1.649151
v -0.014190 -1.445122 1.456875
v -0.026325 -1.631808 1.101243
v 0.010394 -1.865010 0.796578
v -0.006285 -1.992985 0.398613
v 0.032187 1.982137 0.354411
v -0.031597 1.909232 0.712979
v -0.205912 1.515688 1.054823
v -0.268920 1.204838 1.154772
v -0.323071 1.214492 1.669443
v -0.417156 0.801471 1.938950
v -0.432887 0.356330 1.971989
v -0.389534 0.025213 1.992819
v -0.364389 -0.401131 1.978590
v -0.339829 -0.794773 1.853861
v -0.302928 -1.101517 1.623694
v -0.249791 -1.405794 1.389375
v -0.182255 -1.689216 1.137259
v -0.123750 -1.939248 0.794515
v -0.083937 -2.007347 0.392457
v -0.047159 2.023886 0.312722
v -0.128187 1.925543 0.707124
v -0.358914 1.391739 0.955186
v -0.472200 1.359279 1.210378
v -0.678894 1.217755 1.603897
v -0.780558 0.763285 1.809495
v -0.755772 0.354590 1.807279
v -0.763813 0.025776 1.833515
v -0.791101 -0.375767 1.820822
v -0.728439 -0.761823 1.736828
v -0.630349 -1.136479 1.549363
v -0.545505 -1.424862 1.342068
v -0.416883 -1.759868 1.130218
v -0.266098 -1.988776 0.747095
v -0.157243 -2.014906 0.368129
v -0.141445 2.026155 0.240061
v -0.432082 1.941596 0.632475
v -0.566460 1.515849 0.921792
v -0.775265 1.450616 1.187278
v -1.022284 1.151691 1.421624
v -1.096207 0.757319 1.556406
v -1.085783 0.364889 1.588318
v -1.051432 -0.015840 1.509551
v -1.013369 -0.368773 1.464678
v -1.044717 -0.695634 1.480814
v -0.930116 -1.138681 1.393023
v -0.806901 -1.416026 1.195064
v -0.693453 -1.737950 0.997998
v -0.430891 -2.010873 0.644841
v -0.225614 -2.016997 0.328600
v -0.218718 1.967352 0.156047
v -0.620918 1.876855 0.416418
v -0.825163 1.685417 0.782927
v -0.988340 1.323498 0.956473
v -1.150804 1.009589 1.140127
v -1.257105 0.710400 1.281244
v -1.286484 0.359731 1.332023
v -1.334077 0.015730 1.383041
v -1.308869 -0.405558 1.350635
v -1.224715 -0.708220 1.234147
v -1.112502 -1.057478 1.087066
v -0.999279 -1.406788 0.971106
v -0.814410 -1.601276 0.760553
v -0.584631 -1.988266 0.516112
v -0.286527 -2.012038 0.276331
v -0.001482 -1.969528 -0.012483
v -0.292093 1.896055 0.079602
v -0.678432 1.845968 0.280583
v -0.968852 1.677042 0.606998
v -1.070639 1.293015 0.735502
v -1.407156 1.127464 0.948883
v -1.587870 0.783441 1.057348
v -1.647859 0.407406 1.112774
v -1.684140 0.020410 1.172443
v -1.667145 -0.440748 1.114993
v -1.579015 -0.764090 1.052321
v -1.391034 -1.144678 0.936752
v -1.099361 -1.358287 0.718731
v -0.903827 -1.559494 0.606379
v -0.680134 -1.949088 0.395920
v -0.335894 -1.997852 0.212203
v -0.357819 1.846526 0.022861
v -0.726121 1.846558 0.184954
v -1.056644 1.669269 0.430744
v -1.160267 1.278913 0.515136
v -1.564403 1.129757 0.654461
v -1.755398 0.771146 0.721865
v -1.798583 0.501277 0.731043
v -1.988361 -0.010635 0.917407
v -1.878495 -0.473794 0.795843
v -1.743533 -0.774870 0.733276
v -1.598540 -1.148020 0.650911
v -1.323053 -1.443068 0.552530
v -1.030857 -1.654521 0.425587
v -0.730441 -1.908042 0.277691
v -0.369090 -1.969889 0.137024
v -0.413652 1.835052 -0.028247
v -0.753961 1.832150 0.068273
v -1.108760 1.669941 0.219497
v -1.255027 1.277854 0.297943
v -1.599000 1.097474 0.307466
v -1.685918 0.702019 0.306791
v -1.952155 0.499198 0.378052
v -2.141933 -0.021952 0.293135
v -1.982568 -0.433777 0.369646
v -1.805457 -0.775182 0.374209
v -1.619212 -1.091392 0.313511
v -1.424691 -1.437396 0.278509
v -1.096365 -1.679287 0.214314
v -0.759020 -1.881263 0.144251
v -0.382438 -1.921818 0.057881
v -0.449640 1.832732 -0.083299
v -0.751409 1.782927 -0.073108
v -1.124608 1.668688 -0.006138
v -1.363107 1.335495 0.017625
v -1.433156 0.994186 -0.028160
v -1.781287 0.765981 0.015266
v -2.026157 0.399101 0.016058
v -2.066621 -0.013196 -0.020649
v -2.008235 -0.389688 -0.005247
v -1.797186 -0.768798 -0.007825
v -1.490436 -1.023057 0.041399
v -1.419048 -1.386077 -0.013175
v -1.120961 -1.679911 -0.004246
v -0.762733 -1.864798 -0.001604
v -0.376417 -1.851447 -0.006494
v -0.455299 1.841093 -0.143009
v -0.708739 1.687154 -0.206005
v -1.088813 1.651016 -0.230194
v -1.253811 1.270492 -0.282971
v -1.407788 0.987300 -0.236775
v -1.846715 0.784973 -0.384588
v -2.027507 0.427198 -0.427300
v -1.996639 -0.002931 -0.419493
v -1.950476 -0.401609 -0.395031
v -1.673485 -0.723683 -0.328066
v -1.550940 -1.092708 -0.291669
v -1.296936 -1.262167 -0.265040
v -1.073435 -1.654667 -0.230278
v -0.740899 -1.851157 -0.147171
v -0.364570 -1.798141 -0.051186
v -0.428790 1.858566 -0.208398
v -0.651382 1.648229 -0.316422
v -1.004363 1.591679 -0.435810
v -1.136955 1.266318 -0.511286
v -1.363681 0.911823 -0.576611
v -1.570702 0.704955 -0.696626
v -1.809379 0.385014 -0.767892
v -1.831889 0.005792 -0.788426
v -1.771545 -0.396056 -0.743015
v -1.644340 -0.721980 -0.662347
v -1.423810 -1.055732 -0.600490
v -1.165607 -1.239272 -0.494198
v -0.909540 -1.550135 -0.397211
v -0.695736 -1.834416 -0.290731
v -0.344844 -1.793541 -0.103662
v -0.373225 1.880358 -0.273162
v -0.555147 1.638112 -0.421884
v -0.916204 1.615504 -0.603477
v -1.128872 1.349150 -0.725695
v -1.373638 1.094407 -0.902197
v -1.492160 0.735325 -0.974019
v -1.649989 0.427419 -1.102619
v -1.560389 -0.008642 -1.061470
v -1.569516 -0.405144 -1.055049
v -1.402776 -0.713555 -0.930245
v -1.349936 -1.059755 -0.868809
v -1.026559 -1.259124 -0.718690
v -0.840438 -1.579731 -0.550457
v -0.621814 -1.812881 -0.435616
v -0.308364 -1.790329 -0.162065
v -0.294876 1.900331 -0.328501
v -0.447788 1.635608 -0.515390
v -0.771200 1.648644 -0.774003
v -0.999761 1.413412 -0.998385
v -1.175874 1.111140 -1.175875
v -1.308447 0.771535 -1.307173
v -1.374924 0.378004 -1.369682
v -1.289458 0.016552 -1.310997
v -1.286838 -0.361910 -1.231240
v -1.299285 -0.752844 -1.287101
v -1.150756 -1.091063 -1.168730
v -0.892173 -1.263924 -0.919187
v -0.734203 -1.640646 -0.750412
v -0.519916 -1.783039 -0.572515
v -0.256880 -1.782151 -0.217799
v -0.206313 1.906428 -0.367401
v -0.347324 1.626123 -0.586565
v -0.555323 1.590394 -0.883904
v -0.792106 1.414599 -1.178699
v -0.922477 1.110107 -1.382551
v -1.020878 0.766594 -1.537191
v -1.055472 0.376438 -1.624049
v -0.995754 -0.018963 -1.488119
v -0.994827 -0.343047 -1.465624
v -0.969346 -0.723543 -1.442015
v -0.904321 -1.070888 -1.335757
v -0.736252 -1.316935 -1.134289
v -0.594396 -1.663027 -0.905374
v -0.404822 -1.746948 -0.676295
v -0.198033 -1.779498 -0.265136
v -0.118774 1.891644 -0.391962
v -0.246804 1.670978 -0.652227
v -0.365757 1.502675 -0.942572
v -0.474553 1.328661 -1.275724
v -0.597744 1.020285 -1.483695
v -0.629375 0.662892 -1.541673
v -0.660851 0.301091 -1.530729
v -0.691635 -0.053933 -1.509933
v -0.750446 -0.358078 -1.722516
v -0.709647 -0.760252 -1.697375
v -0.630700 -1.107678 -1.517532
v -0.546476 -1.389608 -1.294231
v -0.389384 -1.643534 -1.005170
v -0.288507 -1.750629 -0.738994
v -0.134140 -1.778206 -0.301326
v -0.042522 1.862211 -0.406597
v -0.103726 1.745381 -0.686022
v -0.225912 1.626749 -1.072143
v -0.257743 1.391527 -1.347776
v -0.392331 1.118898 -1.646625
v -0.384808 0.775392 -1.844065
v -0.378653 0.393672 -1.915709
v -0.384093 -0.042671 -1.784907
v -0.383792 -0.379799 -1.908282
v -0.359988 -0.765357 -1.811814
v -0.321616 -1.109302 -1.628350
v -0.266940 -1.417653 -1.376947
v -0.174495 -1.552701 -1.024159
v -0.160110 -1.811065 -0.767052
v -0.066780 -1.775944 -0.324102
v 0.019612 1.854385 -0.416568
v 0.020448 1.783524 -0.694476
v -0.009223 1.509007 -1.421724
v 0.024904 0.768623 -1.934511
v 0.007011 -0.765930 -1.814457
v 0.045816 -1.235132 -1.240501
v -0.015883 -1.570956 -1.082528
v -0.001348 -1.831431 -0.751756
v 0.004989 -1.779906 -0.333852
vn 0.0709 -0.9930 0.0950
vn 0.0068 -0.2536 -0.9673
vn -0.3738 0.9091 -0.1839
vn -0.0090 -0.8611 -0.5083
vn 0.1046 0.2452 -0.9638
vn -0.4291 0.8788 -0.2088
vn 0.3301 -0.3772 -0.8653
vn -0.1372 0.9372 -0.3207
vn 0.4121 -0.6768 -0.6100
vn -0.0477 0.8968 -0.4400
vn 0.4225 -0.7091 -0.5645
vn 0.0911 0.7267 -0.6809
vn 0.1711 -0.3689 -0.9136
vn 0.2536 0.2416 -0.9366
vn 0.1185 -0.8210 -0.5584
vn 0.1856 0.1095 -0.9765
vn 0.5910 -0.7302 -0.3429
vn 0.2936 0.1699 -0.9407
vn 0.2582 -0.9651 0.0447
vn 0.3524 -0.2731 -0.8951
vn -0.1831 0.9682 -0.1707
vn 0.1627 -0.8686 -0.4681
vn 0.4881 0.0560 -0.8710
vn -0.2411 0.9581 -0.1547
vn 0.2961 -0.2220 -0.9290
vn 0.0185 0.8851 -0.4651
vn -0.2817 -0.4662 -0.8386
vn 0.1905 0.9144 -0.3572
vn -0.4818 -0.4664 -0.7418
vn 0.5360 0.4881 -0.6888
vn -0.0539 -0.6943 -0.7177
vn 0.4876 0.3985 -0.7768
vn 0.2815 0.8372 -0.4689
vn 0.2466 -0.4453 -0.8608
vn 0.2228 0.9177 -0.3289
vn 0.2759 -0.7015 -0.6571
vn 0.4179 0.3754 -0.8273
vn 0.1744 -0.9793 -0.1022
vn 0.6575 0.3666 -0.6583
vn 0.5604 -0.6795 -0.4735
vn 0.8874 -0.0606 -0.4570
vn 0.1086 -0.9912 -0.0755
vn 0.8647 -0.0429 -0.5005
vn 0.2888 0.9573 -0.0096
vn 0.2285 -0.8714 -0.4341
vn 0.3540 0.4051 -0.8429
vn 0.0648 0.9976 0.0239
vn 0.1142 -0.1201 -0.9862
vn 0.1409 -0.2114 -0.9672
vn -0.3205 -0.9092 -0.2658
vn 0.2513 -0.0070 -0.9679
vn 0.5592 0.8094 0.1794
vn -0.0833 -0.7689 -0.6339
vn 0.4820 0.5986 -0.6398
vn 0.0962 0.9794 0.1778
vn 0.6723 -0.2104 -0.7097
vn 0.4197 0.7993 -0.4301
vn 0.5772 -0.6071 -0.5461
vn 0.2744 0.9297 -0.2456
vn 0.6238 -0.7578 -0.1912
vn 0.3159 0.5420 -0.7787
vn 0.3977 -0.9175 -0.0055
vn 0.2233 0.1681 -0.9602
vn 0.3868 -0.4957 -0.7776
vn 0.8216 -0.5212 -0.2312
vn 0.3293 0.9353 -0.1295
vn 0.3864 -0.7258 -0.5692
vn 0.5779 0.7157 -0.3922
vn 0.0748 -0.9689 -0.2358
vn 0.7680 0.2643 -0.5834
vn 0.7263 -0.3990 -0.5597
vn 0.6993 0.0780 -0.7105
vn -0.2017 -0.9396 -0.2765
vn 0.6093 -0.2731 -0.7444
vn 0.1671 0.9638 -0.2077
vn -0.2149 -0.6605 -0.7194
vn 0.8484 0.1707 -0.5010
vn -0.1009 0.9931 0.0605
vn 0.9721 -0.1428 -0.1860
vn 0.5445 0.7621 -0.3503
vn 0.0238 -0.9728 -0.2305
vn 0.7009 -0.1434 -0.6987
vn -0.1256 0.8568 -0.5001
vn -0.0802 -0.8100 -0.5809
vn 0.5856 -0.2150 -0.7815
vn -0.1000 0.9870 -0.1256
vn 0.6795 -0.2384 -0.6939
vn 0.6021 0.7386 -0.3032
vn 0.6863 -0.2745 -0.6736
vn 0.3599 0.9282 -0.0940
vn 0.5517 -0.6371 -0.5383
vn 0.6907 0.6936 -0.2046
vn -0.0141 -0.9878 -0.1551
vn 0.9528 0.2086 -0.2207
vn 0.7329 -0.3702 -0.5708
vn 0.8545 0.4187 -0.3074
vn 0.5013 0.8619 -0.0756
vn 0.6589 -0.7488 -0.0715
vn 0.7834 0.6189 0.0577
vn 0.2222 -0.9673 -0.1223
vn 0.9439 0.2681 -0.1930
vn 0.7800 -0.4839 -0.3968
vn 0.7868 0.5312 -0.3143
vn 0.1966 -0.9689 -0.1505
vn 0.9592 0.0410 -0.2798
vn -0.0564 0.9169 -0.3952
vn 0.0272 -0.9316 -0.3624
vn 0.9088 -0.2001 -0.3660
vn 0.0519 0.9903 -0.1291
vn 0.8231 -0.3292 -0.4627
vn 0.6024 0.7649 -0.2279
vn 0.8680 -0.3494 -0.3528
vn 0.9969 0.0596 -0.0507
vn 0.0051 0.9865 -0.1638
vn 0.0695 -0.9860 -0.1518
vn 0.9907 -0.1240 -0.0557
vn 0.2035 0.9765 0.0714
vn 0.9514 -0.3029 -0.0550
vn 0.5513 0.8343 -0.0055
vn 0.8864 -0.4546 -0.0874
vn 0.6230 0.7761 -0.0976
vn 0.6401 -0.7337 -0.2281
vn 0.8798 0.4560 0.1339
vn 0.3903 -0.8410 -0.3747
vn 0.7540 0.6546 0.0551
vn 0.7261 -0.6250 -0.2865
vn 0.9145 0.3859 -0.1215
vn 0.2877 -0.9553 -0.0675
vn 0.8076 -0.5875 -0.0517
vn 0.9314 0.3475 0.1086
vn 0.3975 -0.8967 -0.1948
vn 0.6344 0.7724 0.0322
vn 0.6743 -0.7358 -0.0634
vn 0.9519 0.2865 0.1085
vn 0.2971 -0.9529 -0.0613
vn 0.9880 0.0626 0.1415
vn -0.0038 0.9900 0.1413
vn 0.0658 -0.9978 -0.0117
vn 0.9531 -0.2066 0.2214
vn 0.2753 0.8352 0.4760
vn 0.9738 -0.1497 0.1711
vn 0.3493 0.8526 0.3887
vn 0.8767 -0.4809 0.0130
vn 0.6222 0.7600 0.1877
vn 0.0591 -0.9981 0.0171
vn 0.9853 0.0469 0.1645
vn 0.3187 0.7809 0.5372
vn 0.9897 -0.1310 -0.0575
vn 0.1797 0.9546 0.2374
vn 0.8032 -0.5897 0.0840
vn 0.5618 0.5823 0.5876
vn 0.7725 -0.5800 0.2586
vn 0.5892 0.7079 0.3895
vn 0.3557 -0.9344 0.0213
vn 0.7327 0.6738 0.0955
vn 0.6415 -0.7668 -0.0215
vn 0.9156 0.3065 0.2604
vn 0.2611 -0.9649 -0.0296
vn 0.9294 -0.0763 0.3610
vn -0.0966 0.8921 0.4413
vn 0.5491 -0.8257 0.1290
vn 0.7681 0.5465 0.3337
vn 0.5345 -0.8449 0.0204
vn 0.8318 0.3515 0.4297
vn 0.1979 -0.9763 0.0880
vn 0.9062 -0.1607 0.3910
vn -0.2270 0.7495 0.6219
vn 0.0673 -0.9977 -0.0013
vn 0.8997 0.3092 0.3080
vn 0.3109 0.9350 0.1705
vn 0.9095 -0.2541 0.3289
vn 0.3345 0.9409 -0.0523
vn 0.4694 -0.7823 0.4095
vn 0.7980 0.3411 0.4968
vn 0.5898 -0.5299 0.6094
vn 0.2671 0.9534 0.1406
vn -0.0574 0.9719 0.2282
vn 0.7266 -0.2589 0.6364
vn 0.1486 0.8606 0.4871
vn 0.4894 -0.8066 0.3315
vn 0.7443 0.4475 0.4958
vn 0.8583 -0.4162 0.3000
vn 0.4368 0.8984 0.0459
vn 0.6386 -0.7522 0.1625
vn 0.6848 0.4937 0.5361
vn 0.2603 -0.9497 0.1743
vn 0.6995 0.3071 0.6453
vn 0.1186 -0.9556 0.2697
vn 0.7706 -0.0219 0.6370
vn -0.3043 0.6775 0.6696
vn 0.0742 -0.9972 -0.0112
vn 0.7584 0.2498 0.6020
vn 0.6005 0.4774 0.6415
vn -0.0200 -0.9799 0.1987
vn 0.5944 0.1922 0.7809
vn 0.0375 -0.8846 0.4648
vn 0.5279 0.0534 0.8476
vn 0.0555 0.8573 0.5119
vn 0.0675 -0.9977 -0.0047
vn 0.4941 0.1959 0.8470
vn -0.2346 0.9404 0.2463
vn 0.3965 -0.3077 0.8649
vn 0.0177 0.7681 0.6401
vn 0.5282 -0.5148 0.6753
vn 0.3419 0.9166 0.2074
vn 0.7170 -0.4420 0.5390
vn 0.5911 0.7566 0.2795
vn 0.3961 -0.8429 0.3641
vn 0.3242 -0.2998 0.8972
vn 0.7068 0.7033 0.0768
vn 0.3907 -0.2470 0.8868
vn 0.4292 0.9031 -0.0168
vn 0.3387 -0.5035 0.7949
vn 0.5111 0.6341 0.5802
vn 0.2317 -0.8507 0.4719
vn 0.4817 0.4425 0.7564
vn -0.0742 -0.9958 0.0544
vn 0.4787 0.1131 0.8707
vn 0.1046 -0.8378 0.5358
vn 0.3855 -0.0779 0.9194
vn 0.7428 0.6694 -0.0112
vn 0.0516 -0.9986 0.0057
vn 0.2672 0.2252 0.9369
vn 0.5563 0.8042 -0.2093
vn -0.0069 -0.9987 0.0507
vn 0.4813 0.0281 0.8761
vn 0.3959 -0.8097 0.4333
vn 0.4796 -0.0931 0.8725
vn 0.8490 0.5119 -0.1313
vn 0.1504 -0.9880 -0.0347
vn 0.3836 0.0111 0.9234
vn 0.6791 0.7175 -0.1553
vn 0.1100 -0.2487 0.9623
vn 0.5296 0.7995 0.2833
vn 0.1568 -0.1563 0.9752
vn 0.2618 0.9235 0.2804
vn 0.1866 -0.5121 0.8384
vn 0.2269 0.5159 0.8261
vn 0.0058 -0.8312 0.5559
vn 0.3059 0.5940 0.7440
vn 0.0541 0.8349 0.5478
vn -0.1276 -0.1124 0.9854
vn -0.1372 0.8884 0.4380
vn -0.1802 -0.4888 0.8536
vn -0.0444 0.4972 0.8665
vn -0.2527 -0.8217 0.5109
vn 0.1493 0.7346 0.6619
vn 0.0634 -0.9237 0.3777
vn 0.2649 0.0466 0.9632
vn 0.5646 -0.7731 0.2889
vn 0.1128 -0.2601 0.9590
vn 0.7801 0.6196 -0.0867
vn 0.2449 -0.9681 -0.0524
vn -0.0302 -0.1155 0.9929
vn 0.4686 0.8834 -0.0017
vn -0.0215 -0.3692 0.9291
vn -0.1768 0.0951 0.9796
vn 0.3678 -0.9007 0.2314
vn 0.0148 -0.2374 0.9713
vn 0.6594 0.7490 -0.0650
vn 0.1857 -0.9811 -0.0538
vn 0.2752 -0.0204 0.9612
vn 0.3024 0.9394 0.1613
vn 0.3887 -0.3467 0.8537
vn -0.3788 0.7257 0.5743
vn 0.2584 -0.3521 0.8996
vn -0.7315 0.5377 0.4192
vn -0.1739 -0.5445 0.8205
vn -0.4399 0.8506 0.2880
vn -0.0126 -0.7915 0.6111
vn -0.0000 0.6593 0.7519
vn 0.3906 -0.7093 0.5869
vn -0.2157 -0.5410 0.8129
vn -0.0231 0.7245 0.6889
vn -0.1007 -0.6094 0.7864
vn 0.2618 0.9416 0.2119
vn 0.0186 -0.5962 0.8026
vn -0.2483 0.5078 0.8249
vn 0.1714 -0.7989 0.5765
vn -0.3952 0.0290 0.9181
vn 0.2041 -0.9665 0.1555
vn -0.4211 0.0421 0.9060
vn 0.4968 0.8642 -0.0801
vn 0.1244 -0.9900 -0.0671
vn -0.3687 -0.0293 0.9291
vn 0.2389 0.9359 0.2588
vn -0.3246 -0.2783 0.9040
vn -0.5169 0.6087 0.6019
vn 0.0590 -0.9956 0.0728
vn -0.6558 -0.0799 0.7507
vn 0.1708 0.9665 -0.1914
vn 0.0799 -0.9931 -0.0857
vn -0.7974 -0.0572 0.6007
vn -0.0332 0.9768 0.2114
vn -0.7530 -0.0951 0.6511
vn -0.0452 0.5012 0.8642
vn -0.5396 -0.3913 0.7455
vn 0.3272 0.8713 0.3659
vn -0.3762 -0.6270 0.6822
vn -0.1275 0.8529 0.5062
vn -0.3994 -0.5860 0.7050
vn -0.5339 0.4075 0.7408
vn -0.2395 -0.8596 0.4514
vn -0.5902 0.0040 0.8073
vn -0.7443 -0.5017 0.4408
vn -0.7587 0.6272 0.1763
vn -0.7157 -0.6379 0.2843
vn -0.8725 0.3587 0.3318
vn -0.6838 -0.6992 0.2088
vn -0.8277 0.0829 0.5550
vn -0.0980 -0.9946 -0.0352
vn -0.6214 -0.0186 0.7833
vn -0.2029 0.8800 -0.4294
vn 0.0241 -0.9922 -0.1222
vn -0.3803 -0.1226 0.9167
vn -0.3280 0.9398 -0.0961
vn -0.5834 -0.1754 0.7930
vn -0.2787 0.7670 0.5779
vn -0.7974 -0.3697 0.4770
vn -0.3234 0.8004 0.5047
vn -0.2624 0.8183 -0.5113
vn -0.0414 -0.9818 -0.1853
vn -0.5263 -0.1110 0.8430
vn -0.3100 0.9172 -0.2504
vn -0.4379 -0.3567 0.8252
vn -0.4236 0.8914 0.1611
vn -0.3379 -0.4386 0.8327
vn -0.7951 0.4480 0.4088
vn -0.5013 -0.6789 0.5365
vn -0.3792 0.7915 0.4793
vn -0.6543 -0.7432 0.1399
vn -0.3968 0.4805 0.7821
vn -0.7294 -0.6087 0.3120
vn -0.5067 0.1854 0.8419
vn -0.1946 -0.9724 -0.1286
vn -0.4981 0.1854 0.8470
vn -0.3312 0.9335 0.1374
vn -0.2798 -0.7072 0.6493
vn -0.7704 0.5050 0.3892
vn -0.5506 -0.7011 0.4531
vn -0.8905 0.1839 0.4161
vn -0.2518 -0.9408 -0.2270
vn -0.7478 0.3436 0.5682
vn -0.2516 0.8545 -0.4544
vn -0.1206 -0.9466 -0.2989
vn -0.7120 -0.2264 0.6646
vn -0.1575 0.9683 -0.1938
vn -0.7858 -0.3788 0.4888
vn -0.3658 0.9172 0.1580
vn -0.7529 -0.4570 0.4737
vn -0.8678 0.3319 0.3699
vn -0.3905 -0.7593 0.5206
vn -0.9292 -0.2972 0.2198
vn -0.0506 0.9905 -0.1276
vn -0.8814 -0.4429 0.1639
vn -0.4136 0.9083 0.0628
vn -0.8934 -0.4438 0.0701
vn -0.8874 0.3467 0.3039
vn -0.7929 -0.6016 0.0973
vn -0.3967 0.9172 0.0368
vn -0.5319 -0.8189 0.2154
vn -0.9372 0.3376 -0.0878
vn -0.5423 -0.8279 0.1432
vn -0.8329 0.5520 0.0400
vn -0.2174 -0.9333 -0.2857
vn -0.8932 0.3552 0.2758
vn -0.2347 0.9713 0.0383
vn -0.1963 -0.8524 -0.4846
vn -0.6517 -0.7568 -0.0510
vn -0.8176 0.5616 -0.1271
vn -0.4861 -0.8739 -0.0002
vn -0.7262 0.6706 0.1511
vn -0.0785 -0.9211 -0.3813
vn -0.9692 0.2436 -0.0348
vn -0.2356 0.9652 0.1133
vn -0.2160 -0.6489 -0.7296
vn -0.9572 -0.2749 -0.0901
vn -0.1180 0.9652 -0.2332
vn -0.8803 -0.4743 -0.0114
vn -0.3820 0.9173 -0.1123
vn -0.7391 -0.6341 -0.2273
vn -0.8377 0.4809 0.2588
vn -0.9096 -0.3055 -0.2817
vn -0.7737 0.6223 -0.1187
vn -0.2720 0.8555 -0.4405
vn -0.7891 -0.5702 -0.2283
vn -0.2027 0.9195 -0.3368
vn -0.8185 -0.5717 -0.0577
vn -0.8242 0.4783 -0.3033
vn -0.8484 -0.5113 -0.1368
vn -0.9025 0.3236 -0.2843
vn -0.7067 -0.5642 -0.4269
vn -0.4843 0.8735 0.0493
vn -0.4588 -0.8708 -0.1768
vn -0.8607 0.5000 0.0961
vn 0.1192 -0.9430 -0.3107
vn -0.9966 0.0141 -0.0806
vn -0.2401 0.9580 0.1569
vn -0.2021 -0.6025 -0.7721
vn -0.9775 -0.1400 -0.1580
vn -0.3746 0.8434 -0.3851
vn -0.4268 -0.7072 -0.5636
vn -0.6446 0.4967 -0.5811
vn 0.1499 -0.9870 -0.0578
vn -0.8801 -0.0016 -0.4748
vn -0.2405 0.9576 0.1584
vn -0.3959 -0.8899 -0.2268
vn -0.8895 -0.1558 -0.4295
vn -0.4943 0.8027 -0.3338
vn -0.7954 -0.5528 -0.2485
vn -0.0570 0.9458 -0.3196
vn -0.8598 -0.4527 -0.2362
vn -0.8002 0.4159 -0.4321
vn -0.4795 -0.8167 -0.3212
vn -0.8150 0.4956 -0.3004
vn -0.5957 -0.5207 -0.6115
vn -0.6918 -0.4918 -0.5286
vn -0.1022 0.9946 -0.0191
vn -0.7880 -0.4015 -0.4668
vn -0.8514 0.5199 -0.0693
vn -0.4887 -0.8558 -0.1697
vn -0.8108 0.5241 0.2604
vn -0.7126 -0.6293 -0.3103
vn -0.8748 0.4795 0.0698
vn -0.6647 -0.6840 -0.3004
vn -0.7855 0.5716 -0.2374
vn 0.1294 -0.9903 -0.0503
vn -0.8113 -0.0814 -0.5789
vn -0.2292 0.9649 0.1281
vn -0.3766 -0.8818 -0.2838
vn -0.7759 -0.0903 -0.6243
vn -0.5381 0.7249 -0.4301
vn -0.5306 -0.8090 -0.2532
vn -0.7285 0.3870 -0.5653
vn 0.1351 -0.9870 -0.0872
vn -0.6734 -0.2355 -0.7007
vn -0.1971 0.9776 0.0738
vn -0.3042 -0.8611 -0.4074
vn -0.6010 -0.0834 -0.7949
vn -0.4950 0.6827 -0.5375
vn -0.7873 -0.2301 -0.5721
vn -0.0547 0.9965 0.0634
vn -0.8647 -0.3492 -0.3610
vn -0.6423 0.7289 -0.2371
vn -0.4174 -0.8830 -0.2145
vn -0.6630 0.6882 -0.2946
vn -0.7539 -0.5475 -0.3632
vn -0.7859 0.4156 -0.4578
vn -0.4210 -0.3982 -0.8150
vn -0.2148 0.8502 -0.4806
vn -0.4203 -0.8279 -0.3714
vn -0.5006 0.6276 -0.5962
vn -0.7065 -0.5429 -0.4540
vn -0.5500 0.4738 -0.6878
vn -0.2365 -0.9297 -0.2823
vn -0.6065 0.2236 -0.7630
vn 0.1202 -0.9861 -0.1145
vn -0.5603 -0.3055 -0.7699
vn -0.0880 0.9951 -0.0444
vn -0.2961 -0.8597 -0.4163
vn -0.5730 -0.1209 -0.8106
vn -0.3624 0.6746 -0.6431
vn -0.5318 0.0264 -0.8464
vn 0.1209 0.9804 -0.1556
vn -0.0422 -0.9977 -0.0527
vn 0.0682 -0.2014 -0.9771
vn 0.1137 0.9766 -0.1826
vn -0.2412 -0.8564 -0.4565
vn -0.4106 0.2985 -0.8616
vn -0.3843 0.7377 -0.5551
vn -0.7141 -0.1036 -0.6923
vn -0.0008 0.9448 -0.3276
vn -0.6121 -0.4062 -0.6785
vn 0.1227 0.8368 -0.5337
vn -0.5368 -0.6695 -0.5134
vn -0.0906 0.5810 -0.8089
vn -0.4555 -0.7008 -0.5489
vn -0.0594 0.2998 -0.9521
vn -0.1065 -0.9471 -0.3028
vn 0.1316 0.0881 -0.9874
vn -0.5837 0.7299 -0.3558
vn -0.2686 -0.6412 -0.7188
vn -0.5383 0.6768 -0.5021
vn 0.0018 -0.8549 -0.5188
vn -0.7502 0.2490 -0.6125
vn -0.0057 -0.8204 -0.5717
vn -0.8022 0.0757 -0.5922
vn -0.2641 -0.9609 0.0825
vn -0.7348 -0.0950 -0.6716
vn 0.3053 0.9176 -0.2545
vn -0.1407 -0.8539 -0.5010
vn -0.5030 0.4367 -0.7459
vn -0.2726 0.8558 -0.4396
vn -0.3863 -0.1716 -0.9063
vn -0.6135 0.7816 -0.1128
vn -0.2877 -0.4833 -0.8268
vn -0.0425 -0.2902 -0.9560
vn 0.0870 0.9715 -0.2203
vn -0.1160 -0.8544 -0.5065
vn -0.0785 0.3607 -0.9294
vn -0.1819 0.9377 -0.2961
vn -0.0598 -0.2925 -0.9544
vn -0.2774 0.9379 -0.2084
vn 0.1780 -0.5951 -0.7837
vn -0.4089 0.7577 -0.5087
vn 0.4650 -0.6125 -0.6392
vn -0.4696 0.7393 -0.4826
vn 0.3442 -0.6799 -0.6475
vn -0.3469 0.3133 -0.8840
vn -0.1780 -0.7421 -0.6462
vn -0.1351 0.0959 -0.9862
vn -0.1070 -0.9880 0.1118
vt 0.750000 0.062500
vt 0.750000 0.125000
vt 0.718750 0.125000
vt 0.718750 0.062500
vt 0.750000 0.500000
vt 0.750000 0.562500
vt 0.718750 0.562500
vt 0.718750 0.500000
vt 0.750000 0.937500
vt 0.734375 1.000000
vt 0.718750 0.937500
vt 0.734375 0.000000
vt 0.750000 0.437500
vt 0.718750 0.437500
vt 0.750000 0.875000
vt 0.718750 0.875000
vt 0.750000 0.375000
vt 0.718750 0.375000
vt 0.750000 0.812500
vt 0.718750 0.812500
vt 0.750000 0.312500
vt 0.718750 0.312500
vt 0.750000 0.750000
vt 0.718750 0.750000
vt 0.750000 0.250000
vt 0.718750 0.250000
vt 0.750000 0.687500
vt 0.718750 0.687500
vt 0.750000 0.187500
vt 0.718750 0.187500
vt 0.750000 0.625000
vt 0.718750 0.625000
vt 0.687500 0.187500
vt 0.687500 0.125000
vt 0.687500 0.625000
vt 0.687500 0.562500
vt 0.687500 0.062500
vt 0.687500 0.500000
vt 0.703125 1.000000
vt 0.687500 0.937500
vt 0.703125 0.000000
vt 0.687500 0.437500
vt 0.687500 0.875000
vt 0.687500 0.375000
vt 0.687500 0.812500
vt 0.687500 0.312500
vt 0.687500 0.750000
vt 0.687500 0.250000
vt 0.687500 0.687500
vt 0.656250 0.875000
vt 0.656250 0.812500
vt 0.656250 0.375000
vt 0.656250 0.312500
vt 0.656250 0.750000
vt 0.656250 0.250000
vt 0.656250 0.687500
vt 0.656250 0.187500
vt 0.656250 0.625000
vt 0.656250 0.125000
vt 0.656250 0.562500
vt 0.656250 0.062500
vt 0.656250 0.500000
vt 0.671875 1.000000
vt 0.656250 0.937500
vt 0.671875 0.000000
vt 0.656250 0.437500
vt 0.625000 0.625000
vt 0.625000 0.562500
vt 0.625000 0.125000
vt 0.625000 0.062500
vt 0.625000 0.500000
vt 0.640625 1.000000
vt 0.625000 0.937500
vt 0.640625 0.000000
vt 0.625000 0.437500
vt 0.625000 0.875000
vt 0.625000 0.375000
vt 0.625000 0.812500
vt 0.625000 0.312500
vt 0.625000 0.750000
vt 0.625000 0.250000
vt 0.625000 0.687500
vt 0.625000 0.187500
vt 0.593750 0.375000
vt 0.593750 0.312500
vt 0.593750 0.812500
vt 0.593750 0.750000
vt 0.593750 0.250000
vt 0.593750 0.687500
vt 0.593750 0.187500
vt 0.593750 0.625000
vt 0.593750 0.125000
vt 0.593750 0.562500
vt 0.593750 0.062500
vt 0.593750 0.500000
vt 0.609375 1.000000
vt 0.593750 0.937500
vt 0.609375 0.000000
vt 0.593750 0.437500
vt 0.593750 0.875000
vt 0.562500 0.125000
vt 0.562500 0.062500
vt 0.562500 0.562500
vt 0.562500 0.500000
vt 0.578125 1.000000
vt 0.562500 0.937500
vt 0.578125 0.000000
vt 0.562500 0.437500
vt 0.562500 0.875000
vt 0.562500 0.375000
vt 0.562500 0.812500
vt 0.562500 0.312500
vt 0.562500 0.750000
vt 0.562500 0.250000
vt 0.562500 0.687500
vt 0.562500 0.187500
vt 0.562500 0.625000
vt 0.531250 0.812500
vt 0.531250 0.750000
vt 0.531250 0.312500
vt 0.531250 0.250000
vt 0.531250 0.687500
vt 0.531250 0.187500
vt 0.531250 0.625000
vt 0.531250 0.125000
vt 0.531250 0.562500
vt 0.531250 0.062500
vt 0.531250 0.500000
vt 0.546875 1.000000
vt 0.531250 0.937500
vt 0.546875 0.000000
vt 0.531250 0.437500
vt 0.531250 0.875000
vt 0.531250 0.375000
vt 0.500000 0.562500
vt 0.500000 0.500000
vt 0.515625 1.000000
vt 0.500000 0.937500
vt 0.515625 0.000000
vt 0.500000 0.062500
vt 0.500000 0.437500
vt 0.500000 0.875000
vt 0.500000 0.375000
vt 0.500000 0.812500
vt 0.500000 0.312500
vt 0.500000 0.750000
vt 0.500000 0.250000
vt 0.500000 0.687500
vt 0.500000 0.187500
vt 0.500000 0.625000
vt 0.500000 0.125000
vt 0.468750 0.312500
vt 0.468750 0.250000
vt 0.468750 0.750000
vt 0.468750 0.687500
vt 0.468750 0.187500
vt 0.468750 0.625000
vt 0.468750 0.125000
vt 0.468750 0.562500
vt 0.468750 0.062500
vt 0.468750 0.500000
vt 0.484375 1.000000
vt 0.468750 0.937500
vt 0.484375 0.000000
vt 0.468750 0.437500
vt 0.468750 0.875000
vt 0.468750 0.375000
vt 0.468750 0.812500
vt 0.453125 0.000000
vt 0.437500 0.062500
vt 0.437500 0.500000
vt 0.437500 0.437500
vt 0.437500 0.937500
vt 0.437500 0.875000
vt 0.437500 0.375000
vt 0.437500 0.812500
vt 0.437500 0.312500
vt 0.437500 0.750000
vt 0.437500 0.250000
vt 0.437500 0.687500
vt 0.437500 0.187500
vt 0.437500 0.625000
vt 0.437500 0.125000
vt 0.437500 0.562500
vt 0.453125 1.000000
vt 0.406250 0.250000
vt 0.406250 0.187500
vt 0.406250 0.687500
vt 0.406250 0.625000
vt 0.406250 0.125000
vt 0.406250 0.562500
vt 0.406250 0.062500
vt 0.406250 0.500000
vt 0.421875 1.000000
vt 0.406250 0.937500
vt 0.421875 0.000000
vt 0.406250 0.437500
vt 0.406250 0.875000
vt 0.406250 0.375000
vt 0.406250 0.812500
vt 0.406250 0.312500
vt 0.406250 0.750000
vt 0.375000 0.937500
vt 0.375000 0.875000
vt 0.375000 0.437500
vt 0.375000 0.375000
vt 0.375000 0.812500
vt 0.375000 0.312500
vt 0.375000 0.750000
vt 0.375000 0.250000
vt 0.375000 0.687500
vt 0.375000 0.187500
vt 0.375000 0.625000
vt 0.375000 0.125000
vt 0.375000 0.562500
vt 0.375000 0.062500
vt 0.375000 0.500000
vt 0.390625 1.000000
vt 0.390625 0.000000
vt 0.343750 0.687500
vt 0.343750 0.625000
vt 0.343750 0.187500
vt 0.343750 0.125000
vt 0.343750 0.562500
vt 0.343750 0.062500
vt 0.343750 0.500000
vt 0.359375 1.000000
vt 0.343750 0.937500
vt 0.359375 0.000000
vt 0.343750 0.437500
vt 0.343750 0.875000
vt 0.343750 0.375000
vt 0.343750 0.812500
vt 0.343750 0.312500
vt 0.343750 0.750000
vt 0.343750 0.250000
vt 0.312500 0.437500
vt 0.312500 0.375000
vt 0.312500 0.875000
vt 0.312500 0.812500
vt 0.312500 0.312500
vt 0.312500 0.750000
vt 0.312500 0.250000
vt 0.312500 0.687500
vt 0.312500 0.187500
vt 0.312500 0.625000
vt 0.312500 0.125000
vt 0.312500 0.562500
vt 0.312500 0.062500
vt 0.312500 0.500000
vt 0.328125 1.000000
vt 0.312500 0.937500
vt 0.328125 0.000000
vt 0.281250 0.187500
vt 0.281250 0.125000
vt 0.281250 0.625000
vt 0.281250 0.562500
vt 0.281250 0.062500
vt 0.281250 0.500000
vt 0.296875 1.000000
vt 0.281250 0.937500
vt 0.296875 0.000000
vt 0.281250 0.437500
vt 0.281250 0.875000
vt 0.281250 0.375000
vt 0.281250 0.812500
vt 0.281250 0.312500
vt 0.281250 0.750000
vt 0.281250 0.250000
vt 0.281250 0.687500
vt 0.250000 0.875000
vt 0.250000 0.812500
vt 0.250000 0.375000
vt 0.250000 0.312500
vt 0.250000 0.750000
vt 0.250000 0.250000
vt 0.250000 0.687500
vt 0.250000 0.187500
vt 0.250000 0.625000
vt 0.250000 0.125000
vt 0.250000 0.562500
vt 0.250000 0.062500
vt 0.250000 0.500000
vt 0.265625 1.000000
vt 0.250000 0.937500
vt 0.265625 0.000000
vt 0.250000 0.437500
vt 0.218750 0.625000
vt 0.218750 0.562500
vt 0.218750 0.125000
vt 0.218750 0.062500
vt 0.218750 0.500000
vt 0.234375 1.000000
vt 0.218750 0.937500
vt 0.234375 0.000000
vt 0.218750 0.437500
vt 0.218750 0.875000
vt 0.218750 0.375000
vt 0.218750 0.812500
vt 0.218750 0.312500
vt 0.218750 0.750000
vt 0.218750 0.250000
vt 0.218750 0.687500
vt 0.218750 0.187500
vt 0.187500 0.375000
vt 0.187500 0.312500
vt 0.187500 0.812500
vt 0.187500 0.750000
vt 0.187500 0.250000
vt 0.187500 0.687500
vt 0.187500 0.187500
vt 0.187500 0.625000
vt 0.187500 0.125000
vt 0.187500 0.562500
vt 0.187500 0.062500
vt 0.187500 0.500000
vt 0.203125 1.000000
vt 0.187500 0.937500
vt 0.203125 0.000000
vt 0.187500 0.437500
vt 0.187500 0.875000
vt 0.156250 0.125000
vt 0.156250 0.062500
vt 0.156250 0.562500
vt 0.156250 0.500000
vt 0.171875 1.000000
vt 0.156250 0.937500
vt 0.171875 0.000000
vt 0.156250 0.437500
vt 0.156250 0.875000
vt 0.156250 0.375000
vt 0.156250 0.812500
vt 0.156250 0.312500
vt 0.156250 0.750000
vt 0.156250 0.250000
vt 0.156250 0.687500
vt 0.156250 0.187500
vt 0.156250 0.625000
vt 0.125000 0.312500
vt 0.125000 0.250000
vt 0.125000 0.750000
vt 0.125000 0.687500
vt 0.125000 0.187500
vt 0.125000 0.625000
vt 0.125000 0.125000
vt 0.125000 0.562500
vt 0.125000 0.062500
vt 0.125000 0.500000
vt 0.140625 1.000000
vt 0.125000 0.937500
vt 0.140625 0.000000
vt 0.125000 0.437500
vt 0.125000 0.875000
vt 0.125000 0.375000
vt 0.125000 0.812500
vt 0.109375 1.000000
vt 0.093750 0.937500
vt 0.109375 0.000000
vt 0.093750 0.062500
vt 0.093750 0.500000
vt 0.093750 0.437500
vt 0.093750 0.875000
vt 0.093750 0.375000
vt 0.093750 0.812500
vt 0.093750 0.312500
vt 0.093750 0.750000
vt 0.093750 0.250000
vt 0.093750 0.687500
vt 0.093750 0.187500
vt 0.093750 0.625000
vt 0.093750 0.125000
vt 0.093750 0.562500
vt 0.062500 0.750000
vt 0.062500 0.687500
vt 0.062500 0.250000
vt 0.062500 0.187500
vt 0.062500 0.625000
vt 0.062500 0.125000
vt 0.062500 0.562500
vt 0.062500 0.062500
vt 0.062500 0.500000
vt 0.078125 1.000000
vt 0.062500 0.937500
vt 0.078125 0.000000
vt 0.062500 0.437500
vt 0.062500 0.875000
vt 0.062500 0.375000
vt 0.062500 0.812500
vt 0.062500 0.312500
vt 0.031250 0.500000
vt 0.031250 0.437500
vt 0.031250 0.937500
vt 0.031250 0.875000
vt 0.031250 0.375000
vt 0.031250 0.812500
vt 0.031250 0.312500
vt 0.031250 0.750000
vt 0.031250 0.250000
vt 0.031250 0.687500
vt 0.031250 0.187500
vt 0.031250 0.625000
vt 0.031250 0.125000
vt 0.031250 0.562500
vt 0.031250 0.062500
vt 0.046875 1.000000
vt 0.046875 0.000000
vt 0.000000 0.250000
vt 0.000000 0.187500
vt 0.000000 0.687500
vt 0.000000 0.625000
vt 0.000000 0.125000
vt 0.000000 0.562500
vt 0.000000 0.062500
vt 0.000000 0.500000
vt 0.015625 1.000000
vt 0.000000 0.937500
vt 0.015625 0.000000
vt 0.000000 0.437500
vt 0.000000 0.875000
vt 0.000000 0.375000
vt 0.000000 0.812500
vt 0.000000 0.312500
vt 0.000000 0.750000
vt 1.000000 0.875000
vt 1.000000 0.937500
vt 0.968750 0.937500
vt 0.968750 0.875000
vt 1.000000 0.375000
vt 1.000000 0.437500
vt 0.968750 0.437500
vt 0.968750 0.375000
vt 1.000000 0.812500
vt 0.968750 0.812500
vt 1.000000 0.312500
vt 0.968750 0.312500
vt 1.000000 0.750000
vt 0.968750 0.750000
vt 1.000000 0.250000
vt 0.968750 0.250000
vt 1.000000 0.687500
vt 0.968750 0.687500
vt 1.000000 0.187500
vt 0.968750 0.187500
vt 1.000000 0.625000
vt 0.968750 0.625000
vt 1.000000 0.125000
vt 0.968750 0.125000
vt 1.000000 0.562500
vt 0.968750 0.562500
vt 1.000000 0.062500
vt 0.968750 0.062500
vt 1.000000 0.500000
vt 0.968750 0.500000
vt 0.984375 1.000000
vt 0.984375 0.000000
vt 0.937500 0.687500
vt 0.937500 0.625000
vt 0.937500 0.187500
vt 0.937500 0.125000
vt 0.937500 0.562500
vt 0.937500 0.062500
vt 0.937500 0.500000
vt 0.953125 1.000000
vt 0.937500 0.937500
vt 0.953125 0.000000
vt 0.937500 0.437500
vt 0.937500 0.875000
vt 0.937500 0.375000
vt 0.937500 0.812500
vt 0.937500 0.312500
vt 0.937500 0.750000
vt 0.937500 0.250000
vt 0.906250 0.437500
vt 0.906250 0.375000
vt 0.906250 0.875000
vt 0.906250 0.812500
vt 0.906250 0.312500
vt 0.906250 0.750000
vt 0.906250 0.250000
vt 0.906250 0.687500
vt 0.906250 0.187500
vt 0.906250 0.625000
vt 0.906250 0.125000
vt 0.906250 0.562500
vt 0.906250 0.062500
vt 0.906250 0.500000
vt 0.921875 1.000000
vt 0.906250 0.937500
vt 0.921875 0.000000
vt 0.875000 0.187500
vt 0.875000 0.125000
vt 0.875000 0.625000
vt 0.875000 0.562500
vt 0.875000 0.062500
vt 0.875000 0.500000
vt 0.890625 1.000000
vt 0.875000 0.937500
vt 0.890625 0.000000
vt 0.875000 0.437500
vt 0.875000 0.875000
vt 0.875000 0.375000
vt 0.875000 0.812500
vt 0.875000 0.312500
vt 0.875000 0.750000
vt 0.875000 0.250000
vt 0.875000 0.687500
vt 0.843750 0.375000
vt 0.843750 0.312500
vt 0.843750 0.812500
vt 0.843750 0.750000
vt 0.843750 0.250000
vt 0.843750 0.687500
vt 0.843750 0.187500
vt 0.843750 0.625000
vt 0.843750 0.125000
vt 0.843750 0.562500
vt 0.843750 0.062500
vt 0.843750 0.500000
vt 0.859375 1.000000
vt 0.843750 0.937500
vt 0.859375 0.000000
vt 0.843750 0.437500
vt 0.843750 0.875000
vt 0.812500 0.125000
vt 0.812500 0.062500
vt 0.812500 0.562500
vt 0.812500 0.500000
vt 0.828125 1.000000
vt 0.812500 0.937500
vt 0.828125 0.000000
vt 0.812500 0.437500
vt 0.812500 0.875000
vt 0.812500 0.375000
vt 0.812500 0.812500
vt 0.812500 0.312500
vt 0.812500 0.750000
vt 0.812500 0.250000
vt 0.812500 0.687500
vt 0.812500 0.187500
vt 0.812500 0.625000
vt 0.781250 0.812500
vt 0.781250 0.750000
vt 0.781250 0.312500
vt 0.781250 0.250000
vt 0.781250 0.687500
vt 0.781250 0.187500
vt 0.781250 0.625000
vt 0.781250 0.125000
vt 0.781250 0.562500
vt 0.781250 0.062500
vt 0.781250 0.500000
vt 0.796875 1.000000
vt 0.781250 0.937500
vt 0.796875 0.000000
vt 0.781250 0.437500
vt 0.781250 0.875000
vt 0.781250 0.375000
vt 0.765625 1.000000
vt 0.765625 0.000000
s 0
f 482/1/1 481/2/1 20/3/1 21/4/1
f 4/5/2 3/6/2 13/7/2 14/8/2
f 474/9/3 82/10/3 7/11/3
f 308/12/4 482/1/4 21/4/4
f 5/13/5 4/5/5 14/8/5 15/14/5
f 475/15/6 474/9/6 7/11/6 8/16/6
f 478/17/7 5/13/7 15/14/7 16/18/7
f 1/19/8 475/15/8 8/16/8 9/20/8
f 6/21/9 478/17/9 16/18/9 17/22/9
f 476/23/10 1/19/10 9/20/10 10/24/10
f 479/25/11 6/21/11 17/22/11 18/26/11
f 2/27/12 476/23/12 10/24/12 11/28/12
f 480/29/13 479/25/13 18/26/13 19/30/13
f 477/31/14 2/27/14 11/28/14 12/32/14
f 481/2/15 480/29/15 19/30/15 20/3/15
f 3/6/16 477/31/16 12/32/16 13/7/16
f 20/3/17 19/30/17 34/33/17 35/34/17
f 13/7/18 12/32/18 27/35/18 28/36/18
f 21/4/19 20/3/19 35/34/19 36/37/19
f 14/8/20 13/7/20 28/36/20 29/38/20
f 7/11/21 82/39/21 22/40/21
f 308/41/22 21/4/22 36/37/22
f 15/14/23 14/8/23 29/38/23 30/42/23
f 8/16/24 7/11/24 22/40/24 23/43/24
f 16/18/25 15/14/25 30/42/25 31/44/25
f 9/20/26 8/16/26 23/43/26 24/45/26
f 17/22/27 16/18/27 31/44/27 32/46/27
f 10/24/28 9/20/28 24/45/28 25/47/28
f 18/26/29 17/22/29 32/46/29 33/48/29
f 11/28/30 10/24/30 25/47/30 26/49/30
f 19/30/31 18/26/31 33/48/31 34/33/31
f 12/32/32 11/28/32 26/49/32 27/35/32
f 24/45/33 23/43/33 38/50/33 39/51/33
f 32/46/34 31/44/34 46/52/34 47/53/34
f 25/47/35 24/45/35 39/51/35 40/54/35
f 33/48/36 32/46/36 47/53/36 48/55/36
f 26/49/37 25/47/37 40/54/37 41/56/37
f 34/33/38 33/48/38 48/55/38 49/57/38
f 27/35/39 26/49/39 41/56/39 42/58/39
f 35/34/40 34/33/40 49/57/40 50/59/40
f 28/36/41 27/35/41 42/58/41 43/60/41
f 36/37/42 35/34/42 50/59/42 51/61/42
f 29/38/43 28/36/43 43/60/43 44/62/43
f 22/40/44 82/63/44 37/64/44
f 308/65/45 36/37/45 51/61/45
f 30/42/46 29/38/46 44/62/46 45/66/46
f 23/43/47 22/40/47 37/64/47 38/50/47
f 31/44/48 30/42/48 45/66/48 46/52/48
f 43/60/49 42/58/49 57/67/49 58/68/49
f 51/61/50 50/59/50 65/69/50 66/70/50
f 44/62/51 43/60/51 58/68/51 59/71/51
f 37/64/52 82/72/52 52/73/52
f 308/74/53 51/61/53 66/70/53
f 45/66/54 44/62/54 59/71/54 60/75/54
f 38/50/55 37/64/55 52/73/55 53/76/55
f 46/52/56 45/66/56 60/75/56 61/77/56
f 39/51/57 38/50/57 53/76/57 54/78/57
f 47/53/58 46/52/58 61/77/58 62/79/58
f 40/54/59 39/51/59 54/78/59 55/80/59
f 48/55/60 47/53/60 62/79/60 63/81/60
f 41/56/61 40/54/61 55/80/61 56/82/61
f 49/57/62 48/55/62 63/81/62 64/83/62
f 42/58/63 41/56/63 56/82/63 57/67/63
f 50/59/64 49/57/64 64/83/64 65/69/64
f 62/79/65 61/77/65 76/84/65 77/85/65
f 55/80/66 54/78/66 69/86/66 70/87/66
f 63/81/67 62/79/67 77/85/67 78/88/67
f 56/82/68 55/80/68 70/87/68 71/89/68
f 64/83/69 63/81/69 78/88/69 79/90/69
f 57/67/70 56/82/70 71/89/70 72/91/70
f 65/69/71 64/83/71 79/90/71 80/92/71
f 58/68/72 57/67/72 72/91/72 73/93/72
f 66/70/73 65/69/73 80/92/73 81/94/73
f 59/71/74 58/68/74 73/93/74 74/95/74
f 52/73/75 82/96/75 67/97/75
f 308/98/76 66/70/76 81/94/76
f 60/75/77 59/71/77 74/95/77 75/99/77
f 53/76/78 52/73/78 67/97/78 68/100/78
f 61/77/79 60/75/79 75/99/79 76/84/79
f 54/78/80 53/76/80 68/100/80 69/86/80
f 81/94/81 80/92/81 96/101/81 97/102/81
f 74/95/82 73/93/82 89/103/82 90/104/82
f 67/97/83 82/105/83 83/106/83
f 308/107/84 81/94/84 97/102/84
f 75/99/85 74/95/85 90/104/85 91/108/85
f 68/100/86 67/97/86 83/106/86 84/109/86
f 76/84/87 75/99/87 91/108/87 92/110/87
f 69/86/88 68/100/88 84/109/88 85/111/88
f 77/85/89 76/84/89 92/110/89 93/112/89
f 70/87/90 69/86/90 85/111/90 86/113/90
f 78/88/91 77/85/91 93/112/91 94/114/91
f 71/89/92 70/87/92 86/113/92 87/115/92
f 79/90/93 78/88/93 94/114/93 95/116/93
f 72/91/94 71/89/94 87/115/94 88/117/94
f 80/92/95 79/90/95 95/116/95 96/101/95
f 73/93/96 72/91/96 88/117/96 89/103/96
f 86/113/97 85/111/97 100/118/97 101/119/97
f 94/114/98 93/112/98 108/120/98 109/121/98
f 87/115/99 86/113/99 101/119/99 102/122/99
f 95/116/100 94/114/100 109/121/100 110/123/100
f 88/117/101 87/115/101 102/122/101 103/124/101
f 96/101/102 95/116/102 110/123/102 111/125/102
f 89/103/103 88/117/103 103/124/103 104/126/103
f 97/102/104 96/101/104 111/125/104 112/127/104
f 90/104/105 89/103/105 104/126/105 105/128/105
f 83/106/106 82/129/106 98/130/106
f 308/131/107 97/102/107 112/127/107
f 91/108/108 90/104/108 105/128/108 106/132/108
f 84/109/109 83/106/109 98/130/109 99/133/109
f 92/110/110 91/108/110 106/132/110 107/134/110
f 85/111/111 84/109/111 99/133/111 100/118/111
f 93/112/112 92/110/112 107/134/112 108/120/112
f 105/128/113 104/126/113 119/135/113 120/136/113
f 98/130/114 82/137/114 113/138/114
f 308/139/115 112/127/115 127/140/115
f 106/132/116 105/128/116 120/136/116 121/141/116
f 99/133/117 98/130/117 113/138/117 114/142/117
f 107/134/118 106/132/118 121/141/118 122/143/118
f 100/118/119 99/133/119 114/142/119 115/144/119
f 108/120/120 107/134/120 122/143/120 123/145/120
f 101/119/121 100/118/121 115/144/121 116/146/121
f 109/121/122 108/120/122 123/145/122 124/147/122
f 102/122/123 101/119/123 116/146/123 117/148/123
f 110/123/124 109/121/124 124/147/124 125/149/124
f 103/124/125 102/122/125 117/148/125 118/150/125
f 111/125/126 110/123/126 125/149/126 126/151/126
f 104/126/127 103/124/127 118/150/127 119/135/127
f 112/127/128 111/125/128 126/151/128 127/140/128
f 124/147/129 123/145/129 138/152/129 139/153/129
f 117/148/130 116/146/130 131/154/130 132/155/130
f 125/149/131 124/147/131 139/153/131 140/156/131
f 118/150/132 117/148/132 132/155/132 133/157/132
f 126/151/133 125/149/133 140/156/133 141/158/133
f 119/135/134 118/150/134 133/157/134 134/159/134
f 127/140/135 126/151/135 141/158/135 142/160/135
f 120/136/136 119/135/136 134/159/136 135/161/136
f 113/138/137 82/162/137 128/163/137
f 308/164/138 127/140/138 142/160/138
f 121/141/139 120/136/139 135/161/139 136/165/139
f 114/142/140 113/138/140 128/163/140 129/166/140
f 122/143/141 121/141/141 136/165/141 137/167/141
f 115/144/142 114/142/142 129/166/142 130/168/142
f 123/145/143 122/143/143 137/167/143 138/152/143
f 116/146/144 115/144/144 130/168/144 131/154/144
f 308/169/145 142/160/145 157/170/145
f 136/165/146 135/161/146 150/171/146 151/172/146
f 129/166/147 128/163/147 143/173/147 144/174/147
f 137/167/148 136/165/148 151/172/148 152/175/148
f 130/168/149 129/166/149 144/174/149 145/176/149
f 138/152/150 137/167/150 152/175/150 153/177/150
f 131/154/151 130/168/151 145/176/151 146/178/151
f 139/153/152 138/152/152 153/177/152 154/179/152
f 132/155/153 131/154/153 146/178/153 147/180/153
f 140/156/154 139/153/154 154/179/154 155/181/154
f 133/157/155 132/155/155 147/180/155 148/182/155
f 141/158/156 140/156/156 155/181/156 156/183/156
f 134/159/157 133/157/157 148/182/157 149/184/157
f 142/160/158 141/158/158 156/183/158 157/170/158
f 135/161/159 134/159/159 149/184/159 150/171/159
f 128/163/160 82/185/160 143/173/160
f 155/181/161 154/179/161 169/186/161 170/187/161
f 148/182/162 147/180/162 162/188/162 163/189/162
f 156/183/163 155/181/163 170/187/163 171/190/163
f 149/184/164 148/182/164 163/189/164 164/191/164
f 157/170/165 156/183/165 171/190/165 172/192/165
f 150/171/166 149/184/166 164/191/166 165/193/166
f 143/173/167 82/194/167 158/195/167
f 308/196/168 157/170/168 172/192/168
f 151/172/169 150/171/169 165/193/169 166/197/169
f 144/174/170 143/173/170 158/195/170 159/198/170
f 152/175/171 151/172/171 166/197/171 167/199/171
f 145/176/172 144/174/172 159/198/172 160/200/172
f 153/177/173 152/175/173 167/199/173 168/201/173
f 146/178/174 145/176/174 160/200/174 161/202/174
f 154/179/175 153/177/175 168/201/175 169/186/175
f 147/180/176 146/178/176 161/202/176 162/188/176
f 159/198/177 158/195/177 173/203/177 174/204/177
f 167/199/178 166/197/178 181/205/178 182/206/178
f 160/200/179 159/198/179 174/204/179 175/207/179
f 168/201/180 167/199/180 182/206/180 183/208/180
f 161/202/181 160/200/181 175/207/181 176/209/181
f 169/186/182 168/201/182 183/208/182 184/210/182
f 162/188/183 161/202/183 176/209/183 177/211/183
f 170/187/184 169/186/184 184/210/184 185/212/184
f 163/189/185 162/188/185 177/211/185 178/213/185
f 171/190/186 170/187/186 185/212/186 186/214/186
f 164/191/187 163/189/187 178/213/187 179/215/187
f 172/192/188 171/190/188 186/214/188 187/216/188
f 165/193/189 164/191/189 179/215/189 180/217/189
f 158/195/190 82/218/190 173/203/190
f 308/219/191 172/192/191 187/216/191
f 166/197/192 165/193/192 180/217/192 181/205/192
f 178/213/193 177/211/193 192/220/193 193/221/193
f 186/214/194 185/212/194 200/222/194 201/223/194
f 179/215/195 178/213/195 193/221/195 194/224/195
f 187/216/196 186/214/196 201/223/196 202/225/196
f 180/217/197 179/215/197 194/224/197 195/226/197
f 173/203/198 82/227/198 188/228/198
f 308/229/199 187/216/199 202/225/199
f 181/205/200 180/217/200 195/226/200 196/230/200
f 174/204/201 173/203/201 188/228/201 189/231/201
f 182/206/202 181/205/202 196/230/202 197/232/202
f 175/207/203 174/204/203 189/231/203 190/233/203
f 183/208/204 182/206/204 197/232/204 198/234/204
f 176/209/205 175/207/205 190/233/205 191/235/205
f 184/210/206 183/208/206 198/234/206 199/236/206
f 177/211/207 176/209/207 191/235/207 192/220/207
f 185/212/208 184/210/208 199/236/208 200/222/208
f 197/232/209 196/230/209 211/237/209 212/238/209
f 190/233/210 189/231/210 204/239/210 205/240/210
f 198/234/211 197/232/211 212/238/211 213/241/211
f 191/235/212 190/233/212 205/240/212 206/242/212
f 199/236/213 198/234/213 213/241/213 214/243/213
f 192/220/214 191/235/214 206/242/214 207/244/214
f 200/222/215 199/236/215 214/243/215 215/245/215
f 193/221/216 192/220/216 207/244/216 208/246/216
f 201/223/217 200/222/217 215/245/217 216/247/217
f 194/224/218 193/221/218 208/246/218 209/248/218
f 202/225/219 201/223/219 216/247/219 217/249/219
f 195/226/220 194/224/220 209/248/220 210/250/220
f 188/228/221 82/251/221 203/252/221
f 308/253/222 202/225/222 217/249/222
f 196/230/223 195/226/223 210/250/223 211/237/223
f 189/231/224 188/228/224 203/252/224 204/239/224
f 216/247/225 215/245/225 230/254/225 231/255/225
f 209/248/226 208/246/226 223/256/226 224/257/226
f 217/249/227 216/247/227 231/255/227 232/258/227
f 210/250/228 209/248/228 224/257/228 225/259/228
f 203/252/229 82/260/229 218/261/229
f 308/262/230 217/249/230 232/258/230
f 211/237/231 210/250/231 225/259/231 226/263/231
f 204/239/232 203/252/232 218/261/232 219/264/232
f 212/238/233 211/237/233 226/263/233 227/265/233
f 205/240/234 204/239/234 219/264/234 220/266/234
f 213/241/235 212/238/235 227/265/235 228/267/235
f 206/242/236 205/240/236 220/266/236 221/268/236
f 214/243/237 213/241/237 228/267/237 229/269/237
f 207/244/238 206/242/238 221/268/238 222/270/238
f 215/245/239 214/243/239 229/269/239 230/254/239
f 208/246/240 207/244/240 222/270/240 223/256/240
f 220/266/241 219/264/241 234/271/241 235/272/241
f 228/267/242 227/265/242 242/273/242 243/274/242
f 221/268/243 220/266/243 235/272/243 236/275/243
f 229/269/244 228/267/244 243/274/244 244/276/244
f 222/270/245 221/268/245 236/275/245 237/277/245
f 230/254/246 229/269/246 244/276/246 245/278/246
f 223/256/247 222/270/247 237/277/247 238/279/247
f 231/255/248 230/254/248 245/278/248 246/280/248
f 224/257/249 223/256/249 238/279/249 239/281/249
f 232/258/250 231/255/250 246/280/250 247/282/250
f 225/259/251 224/257/251 239/281/251 240/283/251
f 218/261/252 82/284/252 233/285/252
f 308/286/253 232/258/253 247/282/253
f 226/263/254 225/259/254 240/283/254 241/287/254
f 219/264/255 218/261/255 233/285/255 234/271/255
f 227/265/256 226/263/256 241/287/256 242/273/256
f 239/281/257 238/279/257 253/288/257 254/289/257
f 247/282/258 246/280/258 261/290/258 262/291/258
f 240/283/259 239/281/259 254/289/259 255/292/259
f 233/285/260 82/293/260 248/294/260
f 308/295/261 247/282/261 262/291/261
f 241/287/262 240/283/262 255/292/262 256/296/262
f 234/271/263 233/285/263 248/294/263 249/297/263
f 242/273/264 241/287/264 256/296/264 257/298/264
f 235/272/265 234/271/265 249/297/265 250/299/265
f 243/274/266 242/273/266 257/298/266 258/300/266
f 236/275/267 235/272/267 250/299/267 251/301/267
f 244/276/268 243/274/268 258/300/268 259/302/268
f 237/277/269 236/275/269 251/301/269 252/303/269
f 245/278/270 244/276/270 259/302/270 260/304/270
f 238/279/271 237/277/271 252/303/271 253/288/271
f 246/280/272 245/278/272 260/304/272 261/290/272
f 258/300/273 257/298/273 272/305/273 273/306/273
f 251/301/274 250/299/274 265/307/274 266/308/274
f 259/302/275 258/300/275 273/306/275 274/309/275
f 252/303/276 251/301/276 266/308/276 267/310/276
f 260/304/277 259/302/277 274/309/277 275/311/277
f 253/288/278 252/303/278 267/310/278 268/312/278
f 261/290/279 260/304/279 275/311/279 276/313/279
f 254/289/280 253/288/280 268/312/280 269/314/280
f 262/291/281 261/290/281 276/313/281 277/315/281
f 255/292/282 254/289/282 269/314/282 270/316/282
f 248/294/283 82/317/283 263/318/283
f 308/319/284 262/291/284 277/315/284
f 256/296/285 255/292/285 270/316/285 271/320/285
f 249/297/286 248/294/286 263/318/286 264/321/286
f 257/298/287 256/296/287 271/320/287 272/305/287
f 250/299/288 249/297/288 264/321/288 265/307/288
f 277/315/289 276/313/289 291/322/289 292/323/289
f 270/316/290 269/314/290 284/324/290 285/325/290
f 263/318/291 82/326/291 278/327/291
f 308/328/292 277/315/292 292/323/292
f 271/320/293 270/316/293 285/325/293 286/329/293
f 264/321/294 263/318/294 278/327/294 279/330/294
f 272/305/295 271/320/295 286/329/295 287/331/295
f 265/307/296 264/321/296 279/330/296 280/332/296
f 273/306/297 272/305/297 287/331/297 288/333/297
f 266/308/298 265/307/298 280/332/298 281/334/298
f 274/309/299 273/306/299 288/333/299 289/335/299
f 267/310/300 266/308/300 281/334/300 282/336/300
f 275/311/301 274/309/301 289/335/301 290/337/301
f 268/312/302 267/310/302 282/336/302 283/338/302
f 276/313/303 275/311/303 290/337/303 291/322/303
f 269/314/304 268/312/304 283/338/304 284/324/304
f 289/335/305 288/333/305 303/339/305 304/340/305
f 282/336/306 281/334/306 296/341/306 297/342/306
f 290/337/307 289/335/307 304/340/307 305/343/307
f 283/338/308 282/336/308 297/342/308 298/344/308
f 291/322/309 290/337/309 305/343/309 306/345/309
f 284/324/310 283/338/310 298/344/310 299/346/310
f 292/323/311 291/322/311 306/345/311 307/347/311
f 285/325/312 284/324/312 299/346/312 300/348/312
f 278/327/313 82/349/313 293/350/313
f 308/351/314 292/323/314 307/347/314
f 286/329/315 285/325/315 300/348/315 301/352/315
f 279/330/316 278/327/316 293/350/316 294/353/316
f 287/331/317 286/329/317 301/352/317 302/354/317
f 280/332/318 279/330/318 294/353/318 295/355/318
f 288/333/319 287/331/319 302/354/319 303/339/319
f 281/334/320 280/332/320 295/355/320 296/341/320
f 293/350/321 82/356/321 309/357/321
f 308/358/322 307/347/322 323/359/322
f 301/352/323 300/348/323 316/360/323 317/361/323
f 294/353/324 293/350/324 309/357/324 310/362/324
f 302/354/325 301/352/325 317/361/325 318/363/325
f 295/355/326 294/353/326 310/362/326 311/364/326
f 303/339/327 302/354/327 318/363/327 319/365/327
f 296/341/328 295/355/328 311/364/328 312/366/328
f 304/340/329 303/339/329 319/365/329 320/367/329
f 297/342/330 296/341/330 312/366/330 313/368/330
f 305/343/331 304/340/331 320/367/331 321/369/331
f 298/344/332 297/342/332 313/368/332 314/370/332
f 306/345/333 305/343/333 321/369/333 322/371/333
f 299/346/334 298/344/334 314/370/334 315/372/334
f 307/347/335 306/345/335 322/371/335 323/359/335
f 300/348/336 299/346/336 315/372/336 316/360/336
f 313/368/337 312/366/337 327/373/337 328/374/337
f 321/369/338 320/367/338 335/375/338 336/376/338
f 314/370/339 313/368/339 328/374/339 329/377/339
f 322/371/340 321/369/340 336/376/340 337/378/340
f 315/372/341 314/370/341 329/377/341 330/379/341
f 323/359/342 322/371/342 337/378/342 338/380/342
f 316/360/343 315/372/343 330/379/343 331/381/343
f 309/357/344 82/382/344 324/383/344
f 308/384/345 323/359/345 338/380/345
f 317/361/346 316/360/346 331/381/346 332/385/346
f 310/362/347 309/357/347 324/383/347 325/386/347
f 318/363/348 317/361/348 332/385/348 333/387/348
f 311/364/349 310/362/349 325/386/349 326/388/349
f 319/365/350 318/363/350 333/387/350 334/389/350
f 312/366/351 311/364/351 326/388/351 327/373/351
f 320/367/352 319/365/352 334/389/352 335/375/352
f 332/385/353 331/381/353 346/390/353 347/391/353
f 325/386/354 324/383/354 339/392/354 340/393/354
f 333/387/355 332/385/355 347/391/355 348/394/355
f 326/388/356 325/386/356 340/393/356 341/395/356
f 334/389/357 333/387/357 348/394/357 349/396/357
f 327/373/358 326/388/358 341/395/358 342/397/358
f 335/375/359 334/389/359 349/396/359 350/398/359
f 328/374/360 327/373/360 342/397/360 343/399/360
f 336/376/361 335/375/361 350/398/361 351/400/361
f 329/377/362 328/374/362 343/399/362 344/401/362
f 337/378/363 336/376/363 351/400/363 352/402/363
f 330/379/364 329/377/364 344/401/364 345/403/364
f 338/380/365 337/378/365 352/402/365 353/404/365
f 331/381/366 330/379/366 345/403/366 346/390/366
f 324/383/367 82/405/367 339/392/367
f 308/406/368 338/380/368 353/404/368
f 351/400/369 350/398/369 365/407/369 366/408/369
f 344/401/370 343/399/370 358/409/370 359/410/370
f 352/402/371 351/400/371 366/408/371 367/411/371
f 345/403/372 344/401/372 359/410/372 360/412/372
f 353/404/373 352/402/373 367/411/373 368/413/373
f 346/390/374 345/403/374 360/412/374 361/414/374
f 339/392/375 82/415/375 354/416/375
f 308/417/376 353/404/376 368/413/376
f 347/391/377 346/390/377 361/414/377 362/418/377
f 340/393/378 339/392/378 354/416/378 355/419/378
f 348/394/379 347/391/379 362/418/379 363/420/379
f 341/395/380 340/393/380 355/419/380 356/421/380
f 349/396/381 348/394/381 363/420/381 364/422/381
f 342/397/382 341/395/382 356/421/382 357/423/382
f 350/398/383 349/396/383 364/422/383 365/407/383
f 343/399/384 342/397/384 357/423/384 358/409/384
f 355/424/385 354/425/385 369/426/385 370/427/385
f 363/428/386 362/429/386 377/430/386 378/431/386
f 356/432/387 355/424/387 370/427/387 371/433/387
f 364/434/388 363/428/388 378/431/388 379/435/388
f 357/436/389 356/432/389 371/433/389 372/437/389
f 365/438/390 364/434/390 379/435/390 380/439/390
f 358/440/391 357/436/391 372/437/391 373/441/391
f 366/442/392 365/438/392 380/439/392 381/443/392
f 359/444/393 358/440/393 373/441/393 374/445/393
f 367/446/394 366/442/394 381/443/394 382/447/394
f 360/448/395 359/444/395 374/445/395 375/449/395
f 368/450/396 367/446/396 382/447/396 383/451/396
f 361/452/397 360/448/397 375/449/397 376/453/397
f 354/425/398 82/454/398 369/426/398
f 308/455/399 368/450/399 383/451/399
f 362/429/400 361/452/400 376/453/400 377/430/400
f 374/445/401 373/441/401 388/456/401 389/457/401
f 382/447/402 381/443/402 396/458/402 397/459/402
f 375/449/403 374/445/403 389/457/403 390/460/403
f 383/451/404 382/447/404 397/459/404 398/461/404
f 376/453/405 375/449/405 390/460/405 391/462/405
f 369/426/406 82/463/406 384/464/406
f 308/465/407 383/451/407 398/461/407
f 377/430/408 376/453/408 391/462/408 392/466/408
f 370/427/409 369/426/409 384/464/409 385/467/409
f 378/431/410 377/430/410 392/466/410 393/468/410
f 371/433/411 370/427/411 385/467/411 386/469/411
f 379/435/412 378/431/412 393/468/412 394/470/412
f 372/437/413 371/433/413 386/469/413 387/471/413
f 380/439/414 379/435/414 394/470/414 395/472/414
f 373/441/415 372/437/415 387/471/415 388/456/415
f 381/443/416 380/439/416 395/472/416 396/458/416
f 393/468/417 392/466/417 407/473/417 408/474/417
f 386/469/418 385/467/418 400/475/418 401/476/418
f 394/470/419 393/468/419 408/474/419 409/477/419
f 387/471/420 386/469/420 401/476/420 402/478/420
f 395/472/421 394/470/421 409/477/421 410/479/421
f 388/456/422 387/471/422 402/478/422 403/480/422
f 396/458/423 395/472/423 410/479/423 411/481/423
f 389/457/424 388/456/424 403/480/424 404/482/424
f 397/459/425 396/458/425 411/481/425 412/483/425
f 390/460/426 389/457/426 404/482/426 405/484/426
f 398/461/427 397/459/427 412/483/427 413/485/427
f 391/462/428 390/460/428 405/484/428 406/486/428
f 384/464/429 82/487/429 399/488/429
f 308/489/430 398/461/430 413/485/430
f 392/466/431 391/462/431 406/486/431 407/473/431
f 385/467/432 384/464/432 399/488/432 400/475/432
f 412/483/433 411/481/433 426/490/433 427/491/433
f 405/484/434 404/482/434 419/492/434 420/493/434
f 413/485/435 412/483/435 427/491/435 428/494/435
f 406/486/436 405/484/436 420/493/436 421/495/436
f 399/488/437 82/496/437 414/497/437
f 308/498/438 413/485/438 428/494/438
f 407/473/439 406/486/439 421/495/439 422/499/439
f 400/475/440 399/488/440 414/497/440 415/500/440
f 408/474/441 407/473/441 422/499/441 423/501/441
f 401/476/442 400/475/442 415/500/442 416/502/442
f 409/477/443 408/474/443 423/501/443 424/503/443
f 402/478/444 401/476/444 416/502/444 417/504/444
f 410/479/445 409/477/445 424/503/445 425/505/445
f 403/480/446 402/478/446 417/504/446 418/506/446
f 411/481/447 410/479/447 425/505/447 426/490/447
f 404/482/448 403/480/448 418/506/448 419/492/448
f 424/503/449 423/501/449 438/507/449 439/508/449
f 417/504/450 416/502/450 431/509/450 432/510/450
f 425/505/451 424/503/451 439/508/451 440/511/451
f 418/506/452 417/504/452 432/510/452 433/512/452
f 426/490/453 425/505/453 440/511/453 441/513/453
f 419/492/454 418/506/454 433/512/454 434/514/454
f 427/491/455 426/490/455 441/513/455 442/515/455
f 420/493/456 419/492/456 434/514/456 435/516/456
f 428/494/457 427/491/457 442/515/457 443/517/457
f 421/495/458 420/493/458 435/516/458 436/518/458
f 414/497/459 82/519/459 429/520/459
f 308/521/460 428/494/460 443/517/460
f 422/499/461 421/495/461 436/518/461 437/522/461
f 415/500/462 414/497/462 429/520/462 430/523/462
f 423/501/463 422/499/463 437/522/463 438/507/463
f 416/502/464 415/500/464 430/523/464 431/509/464
f 443/517/465 442/515/465 457/524/465 458/525/465
f 436/518/466 435/516/466 450/526/466 451/527/466
f 429/520/467 82/528/467 444/529/467
f 308/530/468 443/517/468 458/525/468
f 437/522/469 436/518/469 451/527/469 452/531/469
f 430/523/470 429/520/470 444/529/470 445/532/470
f 438/507/471 437/522/471 452/531/471 453/533/471
f 431/509/472 430/523/472 445/532/472 446/534/472
f 439/508/473 438/507/473 453/533/473 454/535/473
f 432/510/474 431/509/474 446/534/474 447/536/474
f 440/511/475 439/508/475 454/535/475 455/537/475
f 433/512/476 432/510/476 447/536/476 448/538/476
f 441/513/477 440/511/477 455/537/477 456/539/477
f 434/514/478 433/512/478 448/538/478 449/540/478
f 442/515/479 441/513/479 456/539/479 457/524/479
f 435/516/480 434/514/480 449/540/480 450/526/480
f 447/536/481 446/534/481 461/541/481 462/542/481
f 455/537/482 454/535/482 469/543/482 470/544/482
f 448/538/483 447/536/483 462/542/483 463/545/483
f 456/539/484 455/537/484 470/544/484 471/546/484
f 449/540/485 448/538/485 463/545/485 464/547/485
f 457/524/486 456/539/486 471/546/486 472/548/486
f 450/526/487 449/540/487 464/547/487 465/549/487
f 458/525/488 457/524/488 472/548/488 473/550/488
f 451/527/489 450/526/489 465/549/489 466/551/489
f 444/529/490 82/552/490 459/553/490
f 308/554/491 458/525/491 473/550/491
f 452/531/492 451/527/492 466/551/492 467/555/492
f 445/532/493 444/529/493 459/553/493 460/556/493
f 453/533/494 452/531/494 467/555/494 468/557/494
f 446/534/495 445/532/495 460/556/495 461/541/495
f 454/535/496 453/533/496 468/557/496 469/543/496
f 466/551/497 465/549/497 3/6/497 4/5/497
f 459/553/498 82/558/498 474/9/498
f 308/559/499 473/550/499 482/1/499
f 467/555/500 466/551/500 4/5/500 5/13/500
f 460/556/501 459/553/501 474/9/501 475/15/501
f 468/557/502 467/555/502 5/13/502 478/17/502
f 461/541/503 460/556/503 475/15/503 1/19/503
f 469/543/504 468/557/504 478/17/504 6/21/504
f 462/542/505 461/541/505 1/19/505 476/23/505
f 470/544/506 469/543/506 6/21/506 479/25/506
f 463/545/507 462/542/507 476/23/507 2/27/507
f 471/546/508 470/544/508 479/25/508 480/29/508
f 464/547/509 463/545/509 2/27/509 477/31/509
f 472/548/510 471/546/510 480/29/510 481/2/510
f 465/549/511 464/547/511 477/31/511 3/6/511
f 473/550/512 472/548/512 481/2/512 482/1/512
